<svg xmlns="http://www.w3.org/2000/svg" viewBox="0 0 63.599 56.684"><defs><style>.cls-1{fill:#0095ff;}</style></defs><g id="레이어_2" data-name="레이어 2"><path d="M61.055,23.255h1.066A1.48,1.48,0,0,0,63.6,21.777V19.983a1.48,1.48,0,0,0-1.478-1.478H55.934a1.43,1.43,0,0,0,.036-.316V16.4a1.48,1.48,0,0,0-1.478-1.478H53.427V4.749h1.065A1.48,1.48,0,0,0,55.97,3.271V1.477A1.479,1.479,0,0,0,54.492,0H16.19A9.839,9.839,0,0,0,6.366,10.214,9.933,9.933,0,0,0,12.98,19.05a9.765,9.765,0,0,0-1.255,17.965H9.835A9.844,9.844,0,0,0,.007,47.228a10.042,10.042,0,0,0,10.054,9.456H57.035a1.479,1.479,0,0,0,1.477-1.478V53.412a1.479,1.479,0,0,0-1.477-1.478H55.97V41.764h1.065a1.479,1.479,0,0,0,1.477-1.478V38.492a1.49,1.49,0,0,0-.035-.315h3.644A1.48,1.48,0,0,0,63.6,36.7V34.905a1.48,1.48,0,0,0-1.478-1.478H61.055Zm1.066-3.588a.321.321,0,0,1,.317.316v1.794a.317.317,0,0,1-.317.316H30.472V19.667H62.121ZM54.809,16.4v1.794a.316.316,0,0,1-.317.316H30.472V16.078h24.02A.321.321,0,0,1,54.809,16.4Zm-2.544-4.98H45.389a.581.581,0,1,0,0,1.161h6.876v2.341H30.472V8.252H40.853a.581.581,0,1,0,0-1.161H11.942A5.336,5.336,0,0,1,16.36,4.749H52.265ZM29.311,8.252V29.313l-4.431-3.46a.581.581,0,0,0-.715,0l-4.43,3.46V8.252Zm-10.737,0v6.665H16.19a5.093,5.093,0,0,1-3.76-1.667,5.038,5.038,0,0,1-1.3-3.909,4.775,4.775,0,0,1,.239-1.089ZM7.526,10.17A8.679,8.679,0,0,1,16.19,1.161h38.3a.317.317,0,0,1,.317.316V3.271a.321.321,0,0,1-.317.317H16.36A6.386,6.386,0,0,0,9.974,9.231a6.188,6.188,0,0,0,1.6,4.8,6.259,6.259,0,0,0,4.619,2.046h2.384v2.427H16.418A8.866,8.866,0,0,1,7.526,10.17ZM54.808,51.934H9.835a5.1,5.1,0,0,1-3.761-1.666,5.044,5.044,0,0,1-1.3-3.911,4.806,4.806,0,0,1,.146-.781H34.684a.581.581,0,0,0,0-1.162H5.4A5.322,5.322,0,0,1,10,41.764H54.808Zm2.543-11.648a.317.317,0,0,1-.316.317H10a6.382,6.382,0,0,0-6.384,5.645,6.185,6.185,0,0,0,1.6,4.8A6.261,6.261,0,0,0,9.835,53.1h47.2a.317.317,0,0,1,.316.317v1.794a.317.317,0,0,1-.316.316H10.061a8.869,8.869,0,0,1-8.893-8.338,8.682,8.682,0,0,1,8.667-9.008h47.2a.315.315,0,0,1,.314.315Zm5.087-5.381V36.7a.321.321,0,0,1-.317.316H16.407a8.867,8.867,0,0,1-8.881-8.34,8.679,8.679,0,0,1,8.664-9.008h2.384v2.426H16.36a6.387,6.387,0,0,0-6.386,5.648,6.185,6.185,0,0,0,1.6,4.8,6.256,6.256,0,0,0,4.618,2.047H62.121A.316.316,0,0,1,62.438,34.905ZM16.19,33.427a5.092,5.092,0,0,1-3.759-1.666,5.039,5.039,0,0,1-1.3-3.911,5.216,5.216,0,0,1,5.23-4.6h2.214V30.5a.581.581,0,0,0,.938.458l5.01-3.913,5.012,3.913a.582.582,0,0,0,.358.123.573.573,0,0,0,.254-.059.58.58,0,0,0,.326-.522V23.255H59.894v2.054H41.232a.581.581,0,0,0,0,1.161H59.894v6.957Z"/><path d="M48.193,28.852H33.774a.581.581,0,0,0,0,1.162H48.193a.581.581,0,0,0,0-1.162Z"/><path d="M25.835,48.7a.579.579,0,0,0,.58.58H44.588a.581.581,0,1,0,0-1.161H26.415A.58.58,0,0,0,25.835,48.7Z"/><path class="cls-1" d="M29.314,8.251V29.313l-4.437-3.462a.568.568,0,0,0-.354-.121.585.585,0,0,0-.36.121l-2.439,1.911V8.251Z"/></g></svg>