<svg xmlns="http://www.w3.org/2000/svg" viewBox="0 0 114.332 90.245"><defs><style>.cls-1{fill:#0095ff;}.cls-2{fill:#fff;}</style></defs><g id="레이어_2" data-name="레이어 2"><path class="cls-1" d="M62.138,4.854a2.176,2.176,0,0,1-1-1.178.3.3,0,0,0-.017-.053,2.19,2.19,0,0,1-.07-1.126l-.006-.029-.249-.883-.041.2-.081.412a2.761,2.761,0,0,0-.052.534,2.732,2.732,0,0,0,.15.888H43.045a2.361,2.361,0,0,1,.017.639,1.684,1.684,0,0,1-.093.418.159.159,0,0,0-.005.024.028.028,0,0,0-.012.023,2.083,2.083,0,0,1-1,1.132c-7.833,4.146-8.925,8.914-8.878,11.382,0,.052.006.1.006.151a3.14,3.14,0,0,0,.029.348,4.172,4.172,0,0,0,.075.54H69.861a9.888,9.888,0,0,1-1.039,2.3H34.846c.029.058.058.111.087.169s.07.133.11.2c.064.122.128.238.2.366.029.052.058.1.093.151.041.075.087.145.128.215.11.185.221.359.337.54a34.946,34.946,0,0,1,3.089,6.114c.267.68.529,1.376.79,2.1a.527.527,0,0,0,.035.087c.046.128.093.262.139.395.006.006.006.018.012.023.046.14.1.279.145.424a.506.506,0,0,1,.029.093l.093-.093.191-.185.035-.041,1.7,1.7,1.486,6.1H42.47c.058.174.11.337.157.5v.006c.035.122.075.249.116.371.029.087.046.175.075.256.047.151.088.3.14.459s.093.319.139.476c.354,1.184.709,2.386,1.045,3.6a.062.062,0,0,1,.006.029c.058.192.111.383.163.575.035.122.069.238.1.354q.3.061.609.1a37.087,37.087,0,0,0,5.842.429,31.815,31.815,0,0,0,8.118-.911c-.128.412-.244.83-.36,1.242a.434.434,0,0,0-.018.122c0,.465-2.636,1.556-7.757,1.556a29.131,29.131,0,0,1-4.385-.313l-.191-.035c-.018,0-.035-.006-.052-.006-.442-.075-.825-.156-1.162-.238a.667.667,0,0,1-.11-.035l.006.024c.046.168.093.336.139.505a.434.434,0,0,0,.012.087.891.891,0,0,0,.116.36c0,.006.005.017.011.017.215.053.442.1.68.134l.052.017c.3.047.61.093.923.134.273.035.564.07.86.093.354.035.726.064,1.1.081.61.035,1.248.052,1.887.052.848,0,2.027-.04,3.107-.139a18.327,18.327,0,0,0,3.815-.708,4.79,4.79,0,0,0,1.161-.546c.053-.035.1-.07.146-.1a1.779,1.779,0,0,0,.214-.2,1.076,1.076,0,0,0,.331-.686c.169-.6.343-1.2.517-1.806l.047-.168v-.012c.005-.011.011-.029.017-.046.546-1.835,1.051-3.49,1.545-5.058.11-.348.22-.7.325-1.051.534-1.666,1.173-3.647,1.881-5.667a.38.38,0,0,0,.029-.111c.622-1.736,1.214-3.292,1.824-4.755A32.75,32.75,0,0,1,68.9,22.124c.186-.273.377-.563.546-.848l.012-.011a10.52,10.52,0,0,0,1.411-3.339,7.273,7.273,0,0,0,.151-1.3C71.063,14.07,69.971,9.134,62.138,4.854Zm.772,27.891c-.691,1.951-1.3,3.861-1.812,5.476-.075.238-.156.482-.232.72H58.108l1.533-6.1,1.7-1.7,1.568,1.574Zm-8.4,6.2.953-6.115,1.678-1.678,1.608,1.6-1.562,6.19Zm.064-6.167-.958,6.167H51.3V32.8l1.654-1.655,1.621,1.62Zm-4.169,6.167H48l-.877-6.167,1.626-1.626L50.408,32.8Zm-5.847-7.793,1.678,1.678.871,6.115H44.45l-1.5-6.184ZM43.19.366a.453.453,0,0,0-.342.157.236.236,0,0,0-.035.058H53.387Z"/><path class="cls-1" d="M95.865,54.461a1.749,1.749,0,1,1-1.747-1.746A1.752,1.752,0,0,1,95.865,54.461Z"/><path class="cls-1" d="M59.273,69.711c-.429-.6-.94-1.278-1.527-1.969-.54-.627-1.132-1.266-1.782-1.887l-.006-.006c-2.6-2.491-6.092-4.663-10.127-4.239a10.963,10.963,0,0,0-4.4,1.673c-2.781,1.655-3.972,3.722-8.652,3.989a.873.873,0,0,1-.128.006L32.2,67.3h-.023c-.79,0-1.684-.1-1.7-.1l.157-2.775.244.006A8.058,8.058,0,0,0,29.5,61.721a7.139,7.139,0,0,0-.772-.889l-.006-.006a5.517,5.517,0,0,0-2.1-.459,4.846,4.846,0,0,0,.9-.551,8.534,8.534,0,0,0-2.073-1.074,5.031,5.031,0,0,0,2.729-4.431,6.384,6.384,0,0,0-.221-2.067,6.688,6.688,0,0,0-2.369-2l-.006-.005a7.528,7.528,0,0,0-1.248-.534,8.138,8.138,0,0,0-6.649.714,7.941,7.941,0,0,0-3.763,6.143,8.066,8.066,0,0,0-.046,1.406l.034-.012-.017.017c-.006,0-.012-.005-.017-.005-.07-.035-.14-.064-.209-.093a8.983,8.983,0,0,0-3.415-.738S5.694,56.872,3.638,60.8a6.889,6.889,0,0,0-.749,3.786,4.911,4.911,0,0,0,.186.976,4.542,4.542,0,0,0,.784,1.521v.006a6.329,6.329,0,0,0,1.405.169,4.756,4.756,0,0,0,1.655-.285l-.006.046c-.023.569-.017,1.115,0,1.644l2.5,7.273,5.472,5.694a15.5,15.5,0,0,0,3.037,1.358,17.124,17.124,0,0,0,4.942.709c.54,0,1.091-.023,1.643-.07a22.028,22.028,0,0,0,4.088-.778A35.576,35.576,0,0,0,42.991,74c.43-.418.842-.865,1.243-1.289a14.837,14.837,0,0,1,3.124-2.781c3.734-2.213,8.338-.941,10.754.017a1.162,1.162,0,0,0,1.19-.192A.373.373,0,0,0,59.273,69.711Z"/><path class="cls-1" d="M96.141,73.938l-.929,2.015-.488,1.063a22.925,22.925,0,0,1-9.268-4.675.579.579,0,0,1-.179-.551v-.006a22.534,22.534,0,0,1,8.425-.4c0,.006.006.012.012.017A3.834,3.834,0,0,0,96.141,73.938Z"/><path class="cls-1" d="M110.118,67.667a.5.5,0,0,1-.046.093c-.163.261-3.711,5.8-7.491,6.5l-1.208-1.1-.575-.523a4.224,4.224,0,0,0,.691-3.664c-.006-.029-.011-.064-.017-.093A11.9,11.9,0,0,1,110.118,67.667Z"/><path class="cls-1" d="M95.9,48.94a.624.624,0,0,1,.1.011l-.111-.006Z"/><path class="cls-1" d="M107.842,52.65c-.378-.232-.836-.5-1.382-.784-.436-.226-.923-.464-1.463-.7-.477-.215-1-.424-1.557-.628a27.061,27.061,0,0,0-4.976-1.3c-.383-.063-.778-.121-1.179-.168-.418-.052-.842-.1-1.277-.128h.063a29.035,29.035,0,0,1,4.518-6.916,7.044,7.044,0,0,1,.889-.76c1.626,1.916,5.017,6.335,6.352,11.085A.623.623,0,0,1,107.842,52.65Z"/><path class="cls-2" d="M100.6,45.193s-2.321,2.565-2.387,3.9c0,0,5.186.929,5.318,1.062S100.6,45.193,100.6,45.193Z"/><path class="cls-1" d="M85.044,50.769c-.778.22-1.568.47-2.375.761-.441.15-.894.319-1.353.5-.11.04-.22.087-.337.127-.017.006-.034.018-.058.03-.209.081-.418.168-.633.261a13.574,13.574,0,0,0-2.253,1.214,11.425,11.425,0,0,0-1.8,1.451,9.162,9.162,0,0,0-.714.778,3.42,3.42,0,0,0-.227.273c-.232.3-.458.627-.679.97a3.367,3.367,0,0,1-.377-.813c-.825-2.456-.36-7.34.023-10.231.058-.442.116-.837.162-1.168a21,21,0,0,1,10.47,5.61A.547.547,0,0,1,85.044,50.769Z"/><path class="cls-2" d="M78.627,53.349a27.045,27.045,0,0,1,3.515-1.642c-2.793-.834-6.446-2.294-6.446-2.294s-.493,3.987.1,6.036A6.869,6.869,0,0,1,78.627,53.349Z"/><path d="M59.529,69.49a.322.322,0,0,1-.029.047c-.012.017-.023.029-.035.046a1.036,1.036,0,0,1-.163.168,1.162,1.162,0,0,1-1.19.192c-2.416-.958-7.02-2.23-10.754-.017a14.837,14.837,0,0,0-3.124,2.781c-.4.424-.813.871-1.243,1.289A35.576,35.576,0,0,1,28.6,82.846a22.028,22.028,0,0,1-4.088.778c-.552.047-1.1.07-1.643.07a17.124,17.124,0,0,1-4.942-.709,15.5,15.5,0,0,1-3.037-1.358A15.283,15.283,0,0,1,6.913,68.66c-.017-.529-.023-1.075,0-1.644l.006-.046.07-1.057a.606.606,0,0,1,.18-.383.955.955,0,0,0,.081-.064.546.546,0,0,1,.36-.093.578.578,0,0,1,.534.621l-.017.244v.006l-.058.836c-.018.534-.018,1.051.006,1.551a13.985,13.985,0,0,0,3.275,8.687,15.309,15.309,0,0,0,6.892,4.552,16.427,16.427,0,0,0,6.161.6,21.142,21.142,0,0,0,3.868-.737,34.4,34.4,0,0,0,13.907-8.565c.412-.4.813-.836,1.208-1.254a15.753,15.753,0,0,1,3.38-2.985c3.635-2.154,7.9-1.382,10.661-.465.406.134.778.268,1.109.4-.221-.331-.488-.708-.79-1.121-.337-.447-.72-.929-1.15-1.428,0-.006,0-.012-.011-.012C54,63.265,49.768,59.642,44.722,60.17a11.034,11.034,0,0,0-4.286,1.6,22.286,22.286,0,0,0-1.98,1.336,11.494,11.494,0,0,1-6.213,2.653c-.366.041-.761.07-1.173.087-.186.012-.372.018-.569.018h-.012a.581.581,0,0,1-.006-1.161c.157,0,.308-.006.459-.012.389-.012.749-.041,1.092-.076a10.441,10.441,0,0,0,5.737-2.45,23.193,23.193,0,0,1,2.084-1.4A12.1,12.1,0,0,1,44.6,59.015c2.421-.25,8.721.145,14.917,9.163A1.175,1.175,0,0,1,59.529,69.49Z"/><path d="M59.529,69.49a.322.322,0,0,1-.029.047c-.023.023-.041.046-.064.069a.475.475,0,0,1-.163.105.591.591,0,0,1-.662-.134,13.681,13.681,0,0,0-1.184-1.115,35.1,35.1,0,0,0-3.716-2.74,9.86,9.86,0,0,0-1.168-.674,9.377,9.377,0,0,0-5.069-.848,13.875,13.875,0,0,0-7.3,3.67c-.848.714-1.69,1.429-2.549,2.125q-.576.471-1.15.958a35.041,35.041,0,0,1-3.682,2.817,16.837,16.837,0,0,1-5.127,2.177,15.117,15.117,0,0,1-3.461.4,15.47,15.47,0,0,1-2.3-.174,8.465,8.465,0,0,1-3.426-1.26A9.044,9.044,0,0,1,14.834,69.3a9.285,9.285,0,0,1,1.033-7.271v-.006a8.244,8.244,0,0,1,.889-1.109l.006,0a8.274,8.274,0,0,1,3.24-2.1c.023-.005.052-.017.075-.023a8.188,8.188,0,0,1,5.372-.04,8.534,8.534,0,0,1,2.073,1.074,8.855,8.855,0,0,1,1.2,1.01l.006.006a7.139,7.139,0,0,1,.772.889,7.888,7.888,0,0,1,1.446,2.967,5.5,5.5,0,0,1,.128,1.155,5.177,5.177,0,0,1-.581,2.4.5.5,0,0,1-.029.052,6.143,6.143,0,0,1-4.942,3.025,3.812,3.812,0,0,1-3.525-1.782,3.219,3.219,0,0,1-.441-2.468,3.439,3.439,0,0,1,3.554-2.544.583.583,0,0,1,.557.6.561.561,0,0,1-.6.558,2.327,2.327,0,0,0-2.375,1.649,2.033,2.033,0,0,0,.29,1.579,2.663,2.663,0,0,0,2.5,1.243,4.994,4.994,0,0,0,3.966-2.41c.848-1.655.54-3.443-.889-5.354a7.162,7.162,0,0,0-10.957-.673,6.775,6.775,0,0,0-.616.737c0,.012-.017.023-.023.035a8.084,8.084,0,0,0-.987,6.544,7.883,7.883,0,0,0,3.147,4.907,7.5,7.5,0,0,0,2.956,1.086,14.061,14.061,0,0,0,5.331-.215,15.548,15.548,0,0,0,4.773-2.027,34.078,34.078,0,0,0,3.554-2.723c.389-.325.778-.65,1.167-.97.854-.691,1.69-1.4,2.526-2.107a15.136,15.136,0,0,1,7.915-3.938,10.442,10.442,0,0,1,5.7.953,10.725,10.725,0,0,1,1.3.743c.435.285,1,.662,1.62,1.1l.006.006c.2.139.412.29.621.447.006,0,.006.006.011.012a21.389,21.389,0,0,1,2.863,2.468A.579.579,0,0,1,59.529,69.49Z"/><path d="M17.052,62.081a.6.6,0,0,1-.076.377c0,.012-.017.023-.023.035a.583.583,0,0,1-1.051-.261c-.006-.024-.012-.093-.035-.2v-.006a8.244,8.244,0,0,0-2.2-4.151,6.961,6.961,0,0,0-2.01-1.394,8.986,8.986,0,0,0-3.519-.784c-.185-.006-4.343-.186-6.242,3.356a6.017,6.017,0,0,0-.708,3.461,3.829,3.829,0,0,0,1.887,3.049,3.788,3.788,0,0,0,.819.337,3.916,3.916,0,0,0,3.275-.366.955.955,0,0,0,.081-.064c.035-.029.07-.058.1-.087a2.425,2.425,0,0,0,.493-.674,2.39,2.39,0,0,0,.134-1.875,1.729,1.729,0,0,0-1.818-1.138.581.581,0,0,1,0-1.162,2.879,2.879,0,0,1,2.9,1.893,3.514,3.514,0,0,1-.18,2.793,3.62,3.62,0,0,1-.738,1.011c-.006,0-.011.011-.017.011v.006a3.615,3.615,0,0,1-1.208.726,4.756,4.756,0,0,1-1.655.285,6.329,6.329,0,0,1-1.405-.169V67.08c-.093-.017-.18-.04-.273-.064a4.889,4.889,0,0,1-3.554-4.4A7.239,7.239,0,0,1,.868,58.5c2.253-4.2,7.119-3.99,7.323-3.972a10.229,10.229,0,0,1,3.106.546,7.863,7.863,0,0,1,1.15.493,7.382,7.382,0,0,1,1.475.987,9.344,9.344,0,0,1,2.84,4.35A7.569,7.569,0,0,1,17.052,62.081Z"/><path d="M28.178,54.311a5.031,5.031,0,0,1-2.729,4.431,5.88,5.88,0,0,1-1.15.47,6.219,6.219,0,0,1-1.719.256,4.927,4.927,0,0,1-1.138-.128,4.287,4.287,0,0,1-1.365-.558,3.412,3.412,0,0,1-.83-.726,3.643,3.643,0,0,1-.552-3.228c.3-.813,1.167-2.137,3.571-1.928a.58.58,0,1,1-.1,1.156c-1.278-.111-2.05.272-2.381,1.167a2.49,2.49,0,0,0,.354,2.09,2.721,2.721,0,0,0,1.562.894,4.465,4.465,0,0,0,2.265-.11,3.925,3.925,0,0,0,3.054-3.844,5.639,5.639,0,0,0-1.149-3.67,4.077,4.077,0,0,0-.285-.343l-.006-.005a6.794,6.794,0,0,0-3.153-2.009,7.917,7.917,0,0,0-6.353.667,7.529,7.529,0,0,0-3.629,6.678c0,.174.012.291.012.314a.576.576,0,0,1-.529.627.528.528,0,0,1-.273-.035.6.6,0,0,1-.354-.488,6.186,6.186,0,0,1-.006-.911,8.562,8.562,0,0,1,4.2-7.195,9.134,9.134,0,0,1,7.287-.767,7.928,7.928,0,0,1,4.019,2.77,6.963,6.963,0,0,1,1.155,2.358A6.384,6.384,0,0,1,28.178,54.311Z"/><path d="M61.261,40.025H40.414a.581.581,0,0,1-.005-1.162H61.261a.581.581,0,0,1,0,1.162Z"/><path d="M60.767,4.2H40.914a.581.581,0,1,1,0-1.161H60.767a.581.581,0,1,1,0,1.161Z"/><path d="M70.553,18.319H31.126a.581.581,0,1,1,0-1.161H70.553a.581.581,0,1,1,0,1.161Z"/><path d="M69.19,21.538h-36.7a.581.581,0,0,1,0-1.162h36.7a.581.581,0,1,1,0,1.162Z"/><path d="M50.844,49.26a29.709,29.709,0,0,1-4.83-.368.666.666,0,0,1-.077-.019c-.309-.056-.657-.123-.981-.207-1.919-.444-2.893-1.07-2.959-1.91q-.278-1-.571-1.989c-.523-1.783-1.049-3.514-1.565-5.146l-.331-1.045c-.551-1.731-1.209-3.771-1.911-5.766-.644-1.818-1.248-3.4-1.847-4.842a32.9,32.9,0,0,0-3.213-5.832c-.2-.283-.379-.575-.564-.873a10.807,10.807,0,0,1-1.44-3.405,7.287,7.287,0,0,1-.152-1.335C30.29,10.455,36,6.412,39.415,4.543a2.031,2.031,0,0,0,.945-1.112c.009-.023.018-.046.028-.067a2.106,2.106,0,0,0,.055-1.048L40.123.693A.581.581,0,0,1,40.693,0H60.982a.661.661,0,0,1,.127.011A.582.582,0,0,1,61.563.7l-.324,1.617a2.2,2.2,0,0,0-.042.422,2.13,2.13,0,0,0,.119.7,2.036,2.036,0,0,0,.948,1.108c3.414,1.869,9.122,5.91,9.014,11.983a7.425,7.425,0,0,1-.158,1.338,10.654,10.654,0,0,1-1.438,3.4c-.175.292-.367.584-.557.87A32.662,32.662,0,0,0,65.9,27.969c-.627,1.523-1.231,3.112-1.847,4.853-.587,1.667-1.174,3.441-1.9,5.753-.117.351-.226.7-.328,1.047-.5,1.579-1.012,3.261-1.574,5.152l-.047.162c-.175.607-.35,1.214-.52,1.822C59.516,48.729,54.078,49.26,50.844,49.26Zm-4.571-1.5a28.587,28.587,0,0,0,4.571.341c4.707,0,7.5-.946,7.684-1.453a.454.454,0,0,1,.019-.137c.177-.632.359-1.262.54-1.893l.048-.167c.566-1.9,1.081-3.59,1.578-5.165.1-.35.216-.711.333-1.066.731-2.316,1.322-4.1,1.914-5.781.622-1.761,1.234-3.367,1.869-4.912a33.709,33.709,0,0,1,3.333-6.04c.177-.266.358-.543.527-.826a9.512,9.512,0,0,0,1.3-3.037,6.152,6.152,0,0,0,.133-1.123c.1-5.66-5.847-9.534-8.409-10.937A3.2,3.2,0,0,1,60.22,3.817a3.276,3.276,0,0,1-.184-1.082,3.384,3.384,0,0,1,.062-.644l.186-.93H41.4l.183.928a3.273,3.273,0,0,1-.121,1.726.59.59,0,0,1-.037.085,3.189,3.189,0,0,1-1.453,1.662c-3.183,1.743-8.509,5.482-8.407,10.942a5.968,5.968,0,0,0,.128,1.121,9.637,9.637,0,0,0,1.291,3.029c.173.279.348.556.534.827a34.111,34.111,0,0,1,3.327,6.041c.606,1.459,1.217,3.062,1.869,4.9.708,2.012,1.369,4.061,1.923,5.8l.331,1.045c.519,1.641,1.047,3.38,1.572,5.169q.3,1.03.594,2.07a.585.585,0,0,1,.021.155c.039.1.51.512,2.077.874.315.082.637.142.976.2C46.23,47.745,46.251,47.751,46.273,47.757Z"/><path d="M63.509,33.208a.576.576,0,0,1-.411-.17l-1.7-1.7-1.7,1.7a.581.581,0,0,1-.411.17h0a.581.581,0,0,1-.411-.17l-1.7-1.7-1.7,1.7a.581.581,0,0,1-.411.17h0a.579.579,0,0,1-.41-.17l-1.7-1.7-1.7,1.7a.6.6,0,0,1-.821,0l-1.7-1.7-1.7,1.7a.581.581,0,0,1-.41.17h0a.579.579,0,0,1-.41-.17l-1.7-1.7-1.7,1.7a.579.579,0,0,1-.41.17h0a.581.581,0,0,1-.411-.17l-1.7-1.7-1.694,1.694a.586.586,0,0,1-.826,0,.576.576,0,0,1,0-.817L39.86,30.1a.581.581,0,0,1,.822,0l1.7,1.7,1.7-1.7a.6.6,0,0,1,.821,0l1.7,1.7,1.7-1.7a.581.581,0,0,1,.41-.17h0a.579.579,0,0,1,.41.17l1.7,1.7,1.7-1.7a.6.6,0,0,1,.821,0l1.7,1.7,1.7-1.7a.581.581,0,0,1,.41-.17h0a.581.581,0,0,1,.411.17l1.7,1.7,1.7-1.7a.58.58,0,0,1,.411-.17h0a.581.581,0,0,1,.411.17l2.109,2.115a.58.58,0,0,1-.411.99Z"/><path d="M47.578,40.025a.582.582,0,0,1-.574-.5l-.97-6.817a.581.581,0,0,1,1.15-.163l.97,6.816a.582.582,0,0,1-.576.663Z"/><path d="M50.833,40.025a.581.581,0,0,1-.581-.581V32.628a.581.581,0,1,1,1.161,0v6.816A.58.58,0,0,1,50.833,40.025Z"/><path d="M54,40.025a.682.682,0,0,1-.09-.007.581.581,0,0,1-.485-.663l1.06-6.816a.58.58,0,1,1,1.147.178l-1.059,6.816A.581.581,0,0,1,54,40.025Z"/><path d="M44.038,40.025a.582.582,0,0,1-.564-.444l-1.658-6.816a.581.581,0,0,1,1.129-.274L44.6,39.307a.58.58,0,0,1-.427.7A.549.549,0,0,1,44.038,40.025Z"/><path d="M57.565,40.025a.59.59,0,0,1-.143-.018A.581.581,0,0,1,57,39.3l1.721-6.817a.581.581,0,0,1,1.126.285l-1.72,6.816A.581.581,0,0,1,57.565,40.025Z"/><path d="M50.842,46.349a37.95,37.95,0,0,1-5.9-.432,16.927,16.927,0,0,1-3.157-.77.581.581,0,0,1,.4-1.09,16.093,16.093,0,0,0,2.938.714,36.975,36.975,0,0,0,5.72.417,28.058,28.058,0,0,0,8.652-1.122.58.58,0,1,1,.4,1.091A29.175,29.175,0,0,1,50.842,46.349Z"/><path d="M72.885,71.182a.581.581,0,0,1-.565-.448l-.587-2.5a14.491,14.491,0,0,1,1.162-9.85.58.58,0,0,1,1.1.247.6.6,0,0,1-.066.275,13.346,13.346,0,0,0-1.066,9.08l.584,2.482a.582.582,0,0,1-.433.7A.6.6,0,0,1,72.885,71.182Z"/><path d="M112.458,67.58a16.292,16.292,0,0,1-8.054,8.454,14.316,14.316,0,0,1-6.155,1.377,16.507,16.507,0,0,1-3.525-.395,22.925,22.925,0,0,1-9.268-4.675.579.579,0,0,1-.179-.551v-.006a.585.585,0,0,1,.389-.424,26.82,26.82,0,0,1,9.4-1.063.583.583,0,0,1-.1,1.162c-.424-.035-.842-.053-1.254-.059a26.559,26.559,0,0,0-6.62.773,22.82,22.82,0,0,0,4.634,2.677,18.281,18.281,0,0,0,3.484,1.1,13.526,13.526,0,0,0,8.7-.969,15.126,15.126,0,0,0,7.479-7.857c1.632-3.868,2.183-9.454-4.454-14.134-.081-.058-8.966-5.975-22.252-1.481a.582.582,0,0,1-.371-1.1c13.861-4.686,22.907,1.37,23.285,1.632C114.874,57.168,114.258,63.317,112.458,67.58Z"/><path d="M73.1,73.9a4.721,4.721,0,0,1-2.9-.9.581.581,0,0,1,.74-.895c.08.063,1.84,1.429,4.837-.071a.581.581,0,0,1,.519,1.039A7.113,7.113,0,0,1,73.1,73.9Z"/><path d="M74.6,76.682a5.4,5.4,0,0,1-1.2-.132.581.581,0,0,1,.258-1.132,5.445,5.445,0,0,0,3.628-.592.581.581,0,1,1,.52,1.039A7.139,7.139,0,0,1,74.6,76.682Z"/><path d="M76.284,79.462a5.4,5.4,0,0,1-1.2-.132.581.581,0,0,1,.258-1.132,5.373,5.373,0,0,0,3.629-.593.581.581,0,0,1,.519,1.039A7.132,7.132,0,0,1,76.284,79.462Z"/><path d="M83.144,78.273a.581.581,0,0,1-.369-1.03l4.736-3.881a.581.581,0,0,1,.736.9l-2.595,2.126,5.34-1.494a.58.58,0,1,1,.313,1.118L83.3,78.251A.565.565,0,0,1,83.144,78.273Z"/><path d="M113.751,75.29a.577.577,0,0,1-.226-.045l-5.09-2.145a.581.581,0,1,1,.451-1.07l3.617,1.524-1.961-3.813a.581.581,0,1,1,1.033-.53l2.692,5.233a.58.58,0,0,1-.516.846Z"/><path d="M90.092,63.765a4.409,4.409,0,0,0-3.24-2.3,4.117,4.117,0,0,0-.662-.053,3.654,3.654,0,0,0-.447.024h-.018a4.367,4.367,0,0,0-3.083,1.788,4.3,4.3,0,0,0-.86,2.6,4.411,4.411,0,0,0,8.821,0A4.36,4.36,0,0,0,90.092,63.765Zm-3.9,5.3A3.242,3.242,0,0,1,84.2,63.254a3.174,3.174,0,0,1,1.858-.68,1.1,1.1,0,0,1,.128,0,.925.925,0,0,1,.174.011,1.257,1.257,0,0,1,.215.012,3.246,3.246,0,0,1-.389,6.469Z"/><circle cx="86.193" cy="64.76" r="2.494"/><circle cx="102.089" cy="61.159" r="2.494"/><path d="M105.77,57.9a4.348,4.348,0,0,0-2.752-.97,4.417,4.417,0,0,0-4.2,3.089.021.021,0,0,0-.006.012,4.085,4.085,0,0,0-.18.935c-.012.122-.017.244-.017.372a4.367,4.367,0,0,0,.969,2.752.857.857,0,0,0,.116.134v0a.523.523,0,0,0,.053.059A4.4,4.4,0,1,0,105.77,57.9Zm-2.752,6.684a3.24,3.24,0,0,1-3.031-2.091,3.153,3.153,0,0,1-.215-1.155,2.5,2.5,0,0,1,.017-.291s0-.011,0-.017a3.073,3.073,0,0,1,.128-.656.022.022,0,0,1,.006-.018,3.273,3.273,0,0,1,3.095-2.264,3.246,3.246,0,0,1,0,6.492Z"/><path d="M85.046,50.769a.553.553,0,0,0-.151-.232c-.087-.081-.168-.157-.256-.232a20.86,20.86,0,0,0-10.214-5.377,9.191,9.191,0,0,0-1.794-.192.582.582,0,0,0-.569.511c-.134,1.074-1.214,10.284.685,13.431a2.294,2.294,0,0,0,.192.279.544.544,0,0,0,.354.238.464.464,0,0,0,.128.017h.052a.083.083,0,0,0,.035-.011.172.172,0,0,0,.075-.018.558.558,0,0,0,.32-.226c.011-.023.023-.041.034-.064l.018-.035c.186-.337.366-.656.551-.929a11.866,11.866,0,0,1,4.443-3.937,38.582,38.582,0,0,1,5.737-2.479.588.588,0,0,0,.383-.43A.578.578,0,0,0,85.046,50.769ZM73.531,57.29c-.029.047-.064.1-.093.151-.981-2.653-.6-8.635-.285-11.509.273.029.651.076,1.11.163a19.745,19.745,0,0,1,9.122,4.639c-.348.128-.7.262-1.051.407-.29.116-.575.238-.865.354l-.006.006c-.25.11-.5.22-.755.337-.766.348-1.533.72-2.3,1.126a13.721,13.721,0,0,0-2.3,1.516c-.151.116-.3.238-.441.366-.2.168-.384.342-.563.522a12.136,12.136,0,0,0-.866.958A11.28,11.28,0,0,0,73.531,57.29Z"/><path d="M73.419,59.214a.578.578,0,0,1-.581-.578v-.005a.581.581,0,1,1,.581.583Z"/><path d="M107.842,52.65a.585.585,0,0,1-.412.43.705.705,0,0,1-.157.017.571.571,0,0,1-.558-.418c-.075-.273-.162-.545-.255-.813a33.2,33.2,0,0,0-5.871-9.831c-.209-.261-.395-.476-.534-.632-2.131,1.381-4.483,6.207-5.249,8.054a.58.58,0,1,1-1.069-.448c.122-.3,3.113-7.45,6.2-8.867a.58.58,0,0,1,.668.134c.052.052.383.406.877,1,1.626,1.916,5.017,6.335,6.352,11.085A.623.623,0,0,1,107.842,52.65Z"/><path d="M96.928,69.216a.576.576,0,0,1-.281-.072L93.1,67.177a.581.581,0,1,1,.563-1.016L96.7,67.845l1.983-3.607A.58.58,0,0,1,99.7,64.8l-2.263,4.118a.58.58,0,0,1-.348.279A.59.59,0,0,1,96.928,69.216Z"/><path d="M75.7,55.927a.579.579,0,0,1-.557-.418c-.626-2.149-.029-6.018,0-6.182a.581.581,0,0,1,.787-.45c.036.014,3.615,1.422,6.352,2.24a.58.58,0,1,1-.333,1.112c-2.052-.613-4.561-1.549-5.753-2a15.207,15.207,0,0,0,.066,4.959.582.582,0,0,1-.4.72A.571.571,0,0,1,75.7,55.927Z"/><path d="M104.426,51.639a.58.58,0,0,1-.5-.281l-3.355-5.588a11.823,11.823,0,0,0-2.2,3.716.58.58,0,1,1-1.088-.4c.052-.143,1.318-3.519,3.135-4.67a.582.582,0,0,1,.809.192l3.7,6.155a.58.58,0,0,1-.5.879Z"/><path d="M75.971,62.643a.58.58,0,0,1-.426-.973,3.98,3.98,0,0,1,2.834-1.149.582.582,0,0,1,.559.6.574.574,0,0,1-.6.559,2.722,2.722,0,0,0-1.942.78A.583.583,0,0,1,75.971,62.643Z"/><path d="M81.62,58.931a.583.583,0,0,1-.293-.08,3.067,3.067,0,0,0-2.7.013.581.581,0,0,1-.543-1.027,4.191,4.191,0,0,1,3.83.012.581.581,0,0,1-.3,1.082Z"/><path d="M85.575,57.417a.581.581,0,0,1-.513-.307c-.563-1.055-2.14-.827-2.157-.823a.581.581,0,0,1-.183-1.148c.1-.016,2.409-.366,3.365,1.424a.58.58,0,0,1-.512.854Z"/><path d="M89.1,59.189l-.062,0a.581.581,0,0,1-.516-.639,2.6,2.6,0,0,0-.643-2.311.585.585,0,0,1-.084-.814.576.576,0,0,1,.806-.1,3.7,3.7,0,0,1,1.076,3.345A.58.58,0,0,1,89.1,59.189Z"/><path d="M92.113,61.63a.581.581,0,0,1-.436-.963c.634-.724.152-2.183-.087-2.684a.58.58,0,0,1,1.046-.5c.05.1,1.184,2.5-.086,3.952A.577.577,0,0,1,92.113,61.63Z"/><path d="M95.521,62.325a1.507,1.507,0,1,0,1.51,1.509A1.508,1.508,0,0,0,95.521,62.325Zm0,1.852a.343.343,0,0,1-.342-.343.346.346,0,1,1,.691,0A.345.345,0,0,1,95.521,64.177Z"/><path d="M94.865,52.889a2.08,2.08,0,1,0-2.108,2.665.758.758,0,0,0,.116.006,2.085,2.085,0,0,0,2.079-2.085A1.965,1.965,0,0,0,94.865,52.889ZM92.873,54.4a.92.92,0,1,1,0-1.84.912.912,0,0,1,.918.917A.92.92,0,0,1,92.873,54.4Z"/><path d="M96.04,60.88a.574.574,0,0,1-.479-.255,3.8,3.8,0,0,1-.276-3.492.581.581,0,1,1,1.062.472,2.618,2.618,0,0,0,.179,2.374.582.582,0,0,1-.486.9Z"/><path d="M98.042,56.1a.577.577,0,0,1-.545-.385,2.845,2.845,0,0,1,.1-2.086,2.4,2.4,0,0,1,1.538-1.2.58.58,0,0,1,.335,1.111,1.286,1.286,0,0,0-.834.609,1.743,1.743,0,0,0-.046,1.183.581.581,0,0,1-.55.769Z"/><path d="M101.753,55.206a.56.56,0,0,1-.208-.039.578.578,0,0,1-.336-.739,2.277,2.277,0,0,1,1.178-1.2,3.324,3.324,0,0,1,2.607.107.581.581,0,0,1-.424,1.081c-1.724-.676-2.2.233-2.275.423A.589.589,0,0,1,101.753,55.206Z"/><path d="M93.824,83.47a.58.58,0,0,1-.579-.554l-.1-2.216L91.7,81.827a.581.581,0,1,1-.716-.915l2.327-1.82a.581.581,0,0,1,.938.431l.152,3.34a.582.582,0,0,1-.553.607Z"/><path d="M102.978,84.617a.177.177,0,0,1-.032,0A.58.58,0,0,1,102.4,84l.192-3.471a.581.581,0,0,1,1.015-.353l2.587,2.921a.581.581,0,0,1-.87.77l-1.651-1.864-.114,2.061A.58.58,0,0,1,102.978,84.617Z"/><path d="M81.922,71.45a2.629,2.629,0,0,1-1.665-.515,2.265,2.265,0,0,1-.742-1.04A2.785,2.785,0,0,1,77.62,69.5a2.465,2.465,0,0,1-1.028-1.56.58.58,0,0,1,1.144-.193,1.338,1.338,0,0,0,.539.794,1.989,1.989,0,0,0,1.552.122.581.581,0,0,1,.713.542h0a1.239,1.239,0,0,0,.44.821A2.145,2.145,0,0,0,82.7,70.2a.58.58,0,0,1,.238,1.136A4.925,4.925,0,0,1,81.922,71.45Z"/><path d="M95.517,77.137a.581.581,0,0,1-.524-.829l1.657-3.492a.581.581,0,0,1,1.049.5l-1.657,3.492A.58.58,0,0,1,95.517,77.137Z"/><path d="M103.755,76.273a.58.58,0,0,1-.373-.136l-4.113-3.456a.581.581,0,0,1,.748-.89l4.112,3.457a.581.581,0,0,1-.374,1.025Z"/><path d="M110.118,67.667a.5.5,0,0,1-.046.093c-.163.261-3.711,5.8-7.491,6.5a3.939,3.939,0,0,1-.784.082,3.742,3.742,0,0,1-.43-.029.577.577,0,0,1-.511-.639.57.57,0,0,1,.517-.511.457.457,0,0,1,.128,0c2.566.273,5.673-3.287,7.131-5.342a11.589,11.589,0,0,0-7.143,1.155,10.347,10.347,0,0,0-1.08.616.586.586,0,0,1-.813-.146.579.579,0,0,1,.145-.807,12.775,12.775,0,0,1,10-1.753.583.583,0,0,1,.383.354A.538.538,0,0,1,110.118,67.667Z"/><path d="M96.313,79.585a2.446,2.446,0,0,1-2.321-2.55.581.581,0,1,1,1.161,0,1.179,1.179,0,1,0,2.32,0,.581.581,0,1,1,1.161,0A2.446,2.446,0,0,1,96.313,79.585Z"/><path d="M100.269,79.645a2.246,2.246,0,0,1-1.39-.5,2.679,2.679,0,0,1-.964-1.631.58.58,0,1,1,1.142-.208,1.518,1.518,0,0,0,.54.926,1.022,1.022,0,0,0,1.565-.286,1.506,1.506,0,0,0,.177-1.057.58.58,0,1,1,1.142-.209,2.668,2.668,0,0,1-.324,1.866,2.206,2.206,0,0,1-1.5,1.059A2.122,2.122,0,0,1,100.269,79.645Z"/><path d="M92.423,78.7a2.13,2.13,0,0,1-.781-.148,2.207,2.207,0,0,1-1.267-1.329,2.679,2.679,0,0,1,.041-1.894.581.581,0,0,1,1.081.425,1.516,1.516,0,0,0-.03,1.072,1.062,1.062,0,0,0,.6.645,1.293,1.293,0,0,0,1.588-.867.581.581,0,0,1,1.081.426A2.552,2.552,0,0,1,92.423,78.7Z"/><path d="M97.79,84.447a.608.608,0,0,1-.162-.022.581.581,0,0,1-.4-.72,1.508,1.508,0,0,0-.07-1.068,1.022,1.022,0,0,0-1.529-.442,1.516,1.516,0,0,0-.629.867.581.581,0,1,1-1.116-.322,2.678,2.678,0,0,1,1.123-1.525,2.181,2.181,0,0,1,3.2.924,2.677,2.677,0,0,1,.136,1.889A.582.582,0,0,1,97.79,84.447Z"/><path d="M102,84.887h-.038a.58.58,0,0,1-.542-.617,1.179,1.179,0,1,0-2.315-.149.59.59,0,0,1-.617.542.581.581,0,0,1-.542-.617,2.332,2.332,0,1,1,4.633.3A.581.581,0,0,1,102,84.887Z"/><path d="M104.409,78.452a2.326,2.326,0,0,1-.868-.172,2.67,2.67,0,0,1-1.383-1.293.58.58,0,1,1,1.037-.522,1.518,1.518,0,0,0,.778.737,1.021,1.021,0,0,0,1.421-.714,1.509,1.509,0,0,0-.127-1.064.581.581,0,0,1,1.038-.522,2.673,2.673,0,0,1,.213,1.882,2.211,2.211,0,0,1-1.142,1.439A2.152,2.152,0,0,1,104.409,78.452Z"/><path d="M107.725,76.363a2.305,2.305,0,0,1-.32-.022,2.67,2.67,0,0,1-1.662-.91.581.581,0,0,1,.877-.762,1.512,1.512,0,0,0,.936.521,1.052,1.052,0,0,0,.85-.235,1.292,1.292,0,0,0-.037-1.809.581.581,0,1,1,.876-.762,2.447,2.447,0,0,1-.076,3.447A2.177,2.177,0,0,1,107.725,76.363Z"/><path d="M97.7,73.723c-1.636,0-3.009-1.474-3.8-4.175a13.7,13.7,0,0,0-1.6-3.592,5.725,5.725,0,0,0-1.125-1.4C88.616,62.377,85.6,62,82.157,63.4a16.687,16.687,0,0,0-4.566,2.859.581.581,0,0,1-.794-.848c.081-.077,8.243-7.584,15.069-1.781a6.543,6.543,0,0,1,1.408,1.7,14.82,14.82,0,0,1,1.737,3.893c.417,1.418,1.375,3.722,3.18,3.273a1.789,1.789,0,0,0,1.153-.843,4.176,4.176,0,0,0-.1-3.332c-.093-.363-.161-.682-.225-1a22.794,22.794,0,0,1-.5-4.8,8.478,8.478,0,0,1,.64-3.48c.784-1.681,2.628-2.493,5.485-2.417a8.364,8.364,0,0,1,5.929,2.668.581.581,0,0,1-.116.888l-.954.6a1.1,1.1,0,0,0-.469.618l-.3,1.038a.581.581,0,1,1-1.114-.328l.306-1.038a2.255,2.255,0,0,1,.965-1.274l.329-.206a7.2,7.2,0,0,0-4.6-1.8c-2.371-.059-3.821.506-4.4,1.747a7.427,7.427,0,0,0-.53,3.006,21.635,21.635,0,0,0,.473,4.556c.06.3.124.6.2.9a5.074,5.074,0,0,1-.023,4.271A3.175,3.175,0,0,1,97.7,73.723Z"/><path d="M108.481,83.622a.581.581,0,0,1-.37-1.029,3.964,3.964,0,0,0,.488-6.609.581.581,0,0,1,.748-.888,5.108,5.108,0,0,1-.5,8.393A.581.581,0,0,1,108.481,83.622Z"/><path d="M96.531,90.245c-10.9,0-18.239-8.586-18.332-8.7a.581.581,0,0,1,.891-.745c.463.552,11.532,13.454,26.809,6.018,1.068-.52,2.6-1.765,2.7-2.749a.583.583,0,0,0-.321-.48,1.116,1.116,0,0,0-1.141-.05C96.329,89.72,85.254,77.6,85.142,77.477a.581.581,0,0,1,.864-.776c.105.115,10.559,11.542,20.552,5.831a2.283,2.283,0,0,1,2.348.084,1.694,1.694,0,0,1,.845,1.569c-.154,1.58-2.084,3.067-3.344,3.68A22.371,22.371,0,0,1,96.531,90.245Z"/></g></svg>