<svg id="레이어_1" data-name="레이어 1" xmlns="http://www.w3.org/2000/svg" viewBox="0 0 48 48"><path d="M23.985,48a.961.961,0,0,1-.761-.376l-3.755-4.916H.985a.958.958,0,0,1-.958-.959V1.018A.96.96,0,0,1,.545.166L.659.107A.962.962,0,0,1,1.1,0H47.063a.958.958,0,0,1,.958.956l.006,40.806a.96.96,0,0,1-1.117.949l-.016,0H28.5l-3.755,4.916A.961.961,0,0,1,23.985,48ZM1.943,40.79h18a.959.959,0,0,1,.761.377l3.281,4.3,3.282-4.3a.956.956,0,0,1,.76-.377H46.108V1.918H1.943Z"/><path d="M30.52,15.673a1.152,1.152,0,0,1-1.1-.861,4.029,4.029,0,0,0-.687-1.371,4.72,4.72,0,0,0-1.95-1.464,7.613,7.613,0,0,0-5.606.04,4.61,4.61,0,0,0-1.944,1.539,3.737,3.737,0,0,0-.694,2.209,3.169,3.169,0,0,0,1.3,2.679A10.091,10.091,0,0,0,23.226,20l2.465.694a15.923,15.923,0,0,1,3.182,1.227,6.836,6.836,0,0,1,2.354,2.013,5.134,5.134,0,0,1,.943,3.146,6.175,6.175,0,0,1-.994,3.447,6.725,6.725,0,0,1-2.871,2.407,10.318,10.318,0,0,1-4.419.879,10.336,10.336,0,0,1-4.229-.8,6.828,6.828,0,0,1-2.848-2.244,6.081,6.081,0,0,1-.91-1.874A1.146,1.146,0,0,1,17,27.427h.088a1.146,1.146,0,0,1,1.1.859,3.957,3.957,0,0,0,.751,1.46A4.823,4.823,0,0,0,21.01,31.2a8.013,8.013,0,0,0,2.876.492,7.882,7.882,0,0,0,3.1-.584,5,5,0,0,0,2.146-1.637,4.009,4.009,0,0,0,.77-2.43,3.158,3.158,0,0,0-.6-1.943,4.659,4.659,0,0,0-1.649-1.336,15.234,15.234,0,0,0-2.65-1l-2.835-.822a10.227,10.227,0,0,1-4.391-2.337,5.035,5.035,0,0,1-1.511-3.736A5.762,5.762,0,0,1,17.3,12.5a6.82,6.82,0,0,1,2.812-2.3,9.438,9.438,0,0,1,3.993-.822,9.1,9.1,0,0,1,3.922.817,6.814,6.814,0,0,1,2.742,2.243,5.815,5.815,0,0,1,.853,1.788,1.143,1.143,0,0,1-1.1,1.446Z"/><path d="M23.886,33.909a10.489,10.489,0,0,1-4.268-.812,6.957,6.957,0,0,1-2.886-2.275,6.19,6.19,0,0,1-.925-1.9A1.241,1.241,0,0,1,17,27.331h.088a1.234,1.234,0,0,1,1.189.93,3.885,3.885,0,0,0,.734,1.425,4.748,4.748,0,0,0,2.037,1.428,7.924,7.924,0,0,0,2.841.487,7.831,7.831,0,0,0,3.064-.577,4.93,4.93,0,0,0,2.105-1.605,3.93,3.93,0,0,0,.752-2.374,3.081,3.081,0,0,0-.577-1.885,4.577,4.577,0,0,0-1.616-1.308,15.216,15.216,0,0,0-2.633-1l-2.835-.821a10.387,10.387,0,0,1-4.432-2.361,5.151,5.151,0,0,1-1.539-3.8,5.874,5.874,0,0,1,1.048-3.42,6.954,6.954,0,0,1,2.85-2.336,9.592,9.592,0,0,1,4.033-.829,9.228,9.228,0,0,1,3.963.825,6.938,6.938,0,0,1,2.779,2.275,5.943,5.943,0,0,1,.869,1.817,1.241,1.241,0,0,1-1.2,1.568,1.244,1.244,0,0,1-1.192-.931,3.974,3.974,0,0,0-.671-1.34,4.655,4.655,0,0,0-1.911-1.433,7.507,7.507,0,0,0-5.53.04,4.529,4.529,0,0,0-1.9,1.507,3.653,3.653,0,0,0-.676,2.153,3.088,3.088,0,0,0,1.263,2.6,10.011,10.011,0,0,0,3.353,1.54l2.465.694a16.069,16.069,0,0,1,3.2,1.235A6.974,6.974,0,0,1,31.3,23.877a5.25,5.25,0,0,1,.961,3.2,6.3,6.3,0,0,1-1.009,3.5,6.864,6.864,0,0,1-2.911,2.441A10.458,10.458,0,0,1,23.886,33.909ZM17,27.522a1.051,1.051,0,0,0-1.006,1.343,6.023,6.023,0,0,0,.9,1.844A6.756,6.756,0,0,0,19.7,32.921a10.274,10.274,0,0,0,4.191.8,10.256,10.256,0,0,0,4.378-.871A6.666,6.666,0,0,0,31.1,30.475a6.106,6.106,0,0,0,.979-3.4,5.066,5.066,0,0,0-.924-3.089,6.774,6.774,0,0,0-2.323-1.985,15.8,15.8,0,0,0-3.161-1.219l-2.466-.7a10.242,10.242,0,0,1-3.416-1.571,3.275,3.275,0,0,1-1.34-2.756,3.841,3.841,0,0,1,.712-2.264,4.715,4.715,0,0,1,1.984-1.572,7.706,7.706,0,0,1,5.682-.04,4.827,4.827,0,0,1,1.988,1.493,4.16,4.16,0,0,1,.7,1.4,1.04,1.04,0,0,0,1.843.374,1.026,1.026,0,0,0,.174-.907,5.729,5.729,0,0,0-.84-1.758,6.729,6.729,0,0,0-2.7-2.212,9.032,9.032,0,0,0-3.88-.808,9.38,9.38,0,0,0-3.953.813,6.763,6.763,0,0,0-2.773,2.269,5.693,5.693,0,0,0-1.013,3.312,4.968,4.968,0,0,0,1.482,3.669A10.194,10.194,0,0,0,22.2,21.851l2.834.822A15.241,15.241,0,0,1,27.7,23.681a4.762,4.762,0,0,1,1.682,1.364,3.26,3.26,0,0,1,.614,2,4.113,4.113,0,0,1-.788,2.486A5.117,5.117,0,0,1,27.024,31.2a8,8,0,0,1-3.138.592,8.154,8.154,0,0,1-2.91-.5,4.948,4.948,0,0,1-2.117-1.486,4.063,4.063,0,0,1-.769-1.5,1.046,1.046,0,0,0-1-.789Z"/></svg>