<svg xmlns="http://www.w3.org/2000/svg" viewBox="0 0 110.115 77.865"><defs><style>.cls-1{fill:#0095ff;}.cls-2{fill:#fff;}</style></defs><g id="레이어_2" data-name="레이어 2"><path class="cls-1" d="M60.821,49.116a1.98,1.98,0,1,0-1.974,2.125c.069,0,.133-.006.2-.012h.006a1.982,1.982,0,0,0,1.771-1.968A1.164,1.164,0,0,0,60.821,49.116Zm-2.793.145a.818.818,0,0,1,1.364-.61A1.4,1.4,0,0,0,58.341,49.9.8.8,0,0,1,58.028,49.261Z"/><path class="cls-1" d="M53.249,49.116a1.983,1.983,0,1,0-1.975,2.125c.07,0,.134-.006.2-.012a1.978,1.978,0,0,0,1.777-1.968A1.164,1.164,0,0,0,53.249,49.116Zm-2.8.145a.822.822,0,0,1,.824-.819.8.8,0,0,1,.54.209A1.389,1.389,0,0,0,50.769,49.9.8.8,0,0,1,50.45,49.261Zm2.8-.145a1.983,1.983,0,1,0-1.975,2.125c.07,0,.134-.006.2-.012a1.978,1.978,0,0,0,1.777-1.968A1.164,1.164,0,0,0,53.249,49.116Zm-2.8.145a.822.822,0,0,1,.824-.819.8.8,0,0,1,.54.209A1.389,1.389,0,0,0,50.769,49.9.8.8,0,0,1,50.45,49.261Zm2.8-.145a1.983,1.983,0,1,0-1.975,2.125c.07,0,.134-.006.2-.012a1.978,1.978,0,0,0,1.777-1.968A1.164,1.164,0,0,0,53.249,49.116Zm-2.8.145a.822.822,0,0,1,.824-.819.8.8,0,0,1,.54.209A1.389,1.389,0,0,0,50.769,49.9.8.8,0,0,1,50.45,49.261Zm2.8-.145a1.983,1.983,0,1,0-1.975,2.125c.07,0,.134-.006.2-.012a1.978,1.978,0,0,0,1.777-1.968A1.164,1.164,0,0,0,53.249,49.116Zm-2.8.145a.822.822,0,0,1,.824-.819.8.8,0,0,1,.54.209A1.389,1.389,0,0,0,50.769,49.9.8.8,0,0,1,50.45,49.261ZM78,26.5V17.3H35.369v9.2H12.711V61.4h87.945V26.5ZM46.826,36.387l8.235-4.053L63.3,36.387ZM44.91,37.548h9.57V60.973H44.91ZM55.641,60.973V37.548h9.564V60.973ZM51.274,47.281a1.98,1.98,0,1,0,0,3.96c.07,0,.134-.006.2-.012a1.978,1.978,0,0,0,1.777-1.968,1.164,1.164,0,0,0-.006-.145A1.984,1.984,0,0,0,51.274,47.281Zm-.824,1.98a.822.822,0,0,1,.824-.819.8.8,0,0,1,.54.209A1.389,1.389,0,0,0,50.769,49.9.8.8,0,0,1,50.45,49.261Zm2.8-.145a1.983,1.983,0,1,0-1.975,2.125c.07,0,.134-.006.2-.012a1.978,1.978,0,0,0,1.777-1.968A1.164,1.164,0,0,0,53.249,49.116Zm-2.8.145a.822.822,0,0,1,.824-.819.8.8,0,0,1,.54.209A1.389,1.389,0,0,0,50.769,49.9.8.8,0,0,1,50.45,49.261Zm2.8-.145a1.983,1.983,0,1,0-1.975,2.125c.07,0,.134-.006.2-.012a1.978,1.978,0,0,0,1.777-1.968A1.164,1.164,0,0,0,53.249,49.116Zm-2.8.145a.822.822,0,0,1,.824-.819.8.8,0,0,1,.54.209A1.389,1.389,0,0,0,50.769,49.9.8.8,0,0,1,50.45,49.261Z"/><path d="M32.118,22.683H9.465a.575.575,0,0,0-.581.581v38.29a.58.58,0,0,0,.581.581H32.118a.583.583,0,0,0,.58-.581V23.264A.578.578,0,0,0,32.118,22.683Zm-.581,38.29H10.046V23.844H31.537Z"/><path d="M78.567,13.932a.507.507,0,0,0-.024-.07.294.294,0,0,0-.046-.1.651.651,0,0,0-.07-.1.38.38,0,0,0-.1-.087.567.567,0,0,0-.325-.1H32.118a.568.568,0,0,0-.326.1.562.562,0,0,0-.162.168.307.307,0,0,0-.041.076c-.006.005-.006.017-.011.023a.423.423,0,0,0-.03.093,1,1,0,0,0-.011.122V61.554a.583.583,0,0,0,.581.581H78a.583.583,0,0,0,.58-.581V14.06A1.105,1.105,0,0,0,78.567,13.932ZM32.7,60.973V14.64H77.417V60.973Z"/><path class="cls-2" d="M60.821,49.116a1.98,1.98,0,1,0-1.974,2.125c.069,0,.133-.006.2-.012h.006a1.982,1.982,0,0,0,1.771-1.968A1.164,1.164,0,0,0,60.821,49.116Zm-2.793.145a.818.818,0,0,1,1.364-.61A1.4,1.4,0,0,0,58.341,49.9.8.8,0,0,1,58.028,49.261Z"/><path class="cls-2" d="M53.249,49.116a1.983,1.983,0,1,0-1.975,2.125c.07,0,.134-.006.2-.012a1.978,1.978,0,0,0,1.777-1.968A1.164,1.164,0,0,0,53.249,49.116Zm-2.8.145a.822.822,0,0,1,.824-.819.8.8,0,0,1,.54.209A1.389,1.389,0,0,0,50.769,49.9.8.8,0,0,1,50.45,49.261Zm2.8-.145a1.983,1.983,0,1,0-1.975,2.125c.07,0,.134-.006.2-.012a1.978,1.978,0,0,0,1.777-1.968A1.164,1.164,0,0,0,53.249,49.116Zm-2.8.145a.822.822,0,0,1,.824-.819.8.8,0,0,1,.54.209A1.389,1.389,0,0,0,50.769,49.9.8.8,0,0,1,50.45,49.261Zm2.8-.145a1.983,1.983,0,1,0-1.975,2.125c.07,0,.134-.006.2-.012a1.978,1.978,0,0,0,1.777-1.968A1.164,1.164,0,0,0,53.249,49.116Zm-2.8.145a.822.822,0,0,1,.824-.819.8.8,0,0,1,.54.209A1.389,1.389,0,0,0,50.769,49.9.8.8,0,0,1,50.45,49.261Zm2.8-.145a1.983,1.983,0,1,0-1.975,2.125c.07,0,.134-.006.2-.012a1.978,1.978,0,0,0,1.777-1.968A1.164,1.164,0,0,0,53.249,49.116Zm-2.8.145a.822.822,0,0,1,.824-.819.8.8,0,0,1,.54.209A1.389,1.389,0,0,0,50.769,49.9.8.8,0,0,1,50.45,49.261ZM44.329,36.968V61.554H65.786V36.968Zm.581.58h9.57V60.973H44.91Zm20.3,23.425H55.641V37.548h9.564ZM51.274,47.281a1.98,1.98,0,1,0,0,3.96c.07,0,.134-.006.2-.012a1.978,1.978,0,0,0,1.777-1.968,1.164,1.164,0,0,0-.006-.145A1.984,1.984,0,0,0,51.274,47.281Zm-.824,1.98a.822.822,0,0,1,.824-.819.8.8,0,0,1,.54.209A1.389,1.389,0,0,0,50.769,49.9.8.8,0,0,1,50.45,49.261Zm2.8-.145a1.983,1.983,0,1,0-1.975,2.125c.07,0,.134-.006.2-.012a1.978,1.978,0,0,0,1.777-1.968A1.164,1.164,0,0,0,53.249,49.116Zm-2.8.145a.822.822,0,0,1,.824-.819.8.8,0,0,1,.54.209A1.389,1.389,0,0,0,50.769,49.9.8.8,0,0,1,50.45,49.261Zm2.8-.145a1.983,1.983,0,1,0-1.975,2.125c.07,0,.134-.006.2-.012a1.978,1.978,0,0,0,1.777-1.968A1.164,1.164,0,0,0,53.249,49.116Zm-2.8.145a.822.822,0,0,1,.824-.819.8.8,0,0,1,.54.209A1.389,1.389,0,0,0,50.769,49.9.8.8,0,0,1,50.45,49.261Z"/><path d="M66.343,36.817a.468.468,0,0,0-.064-.151.717.717,0,0,0-.1-.122.374.374,0,0,0-.117-.081c0-.006-.017-.012-.023-.018l-.029-.011a.582.582,0,0,0-.226-.047H44.329a.585.585,0,0,0-.226.047l-.029.011a.122.122,0,0,0-.029.018.362.362,0,0,0-.081.058.186.186,0,0,0-.047.035.5.5,0,0,0-.081.11.375.375,0,0,0-.058.133c-.006,0-.006.006-.006.018a.419.419,0,0,0-.023.151V61.554a.583.583,0,0,0,.58.581H65.786a.579.579,0,0,0,.58-.581V36.968A.419.419,0,0,0,66.343,36.817ZM65.205,60.973H44.91V37.548h20.3Z"/><path d="M43.749,61.554v-.581H32.7v.581a.583.583,0,0,1-.58.581H44.329A.583.583,0,0,1,43.749,61.554Zm0,0v-.581H32.7v.581a.583.583,0,0,1-.58.581H44.329A.583.583,0,0,1,43.749,61.554Zm0,0v-.581H32.7v.581a.583.583,0,0,1-.58.581H44.329A.583.583,0,0,1,43.749,61.554Zm56.907-.581H9.465a.58.58,0,0,0-.581.581V66.8a.579.579,0,0,0,.581.58h91.191a.583.583,0,0,0,.581-.58V61.554A.583.583,0,0,0,100.656,60.973Zm-90.61,5.244V62.135h90.029v4.082Zm33.7-4.663v-.581H32.7v.581a.583.583,0,0,1-.58.581H44.329A.583.583,0,0,1,43.749,61.554Zm0,0v-.581H32.7v.581a.583.583,0,0,1-.58.581H44.329A.583.583,0,0,1,43.749,61.554Z"/><path d="M105.115,66.217H5a.582.582,0,0,0-.581.581v5.243A.579.579,0,0,0,5,72.622H105.115a.579.579,0,0,0,.581-.581V66.8A.582.582,0,0,0,105.115,66.217ZM5.58,71.46V67.378h98.955V71.46Z"/><path d="M109.534,71.46H.581A.583.583,0,0,0,0,72.041v5.244a.578.578,0,0,0,.581.58H109.534a.574.574,0,0,0,.581-.58V72.041A.579.579,0,0,0,109.534,71.46Zm-.58,5.244H1.161V72.622H108.954Z"/><path d="M15.167,56.65a.581.581,0,0,1-.581-.581V28.748a.581.581,0,0,1,1.162,0V56.069A.581.581,0,0,1,15.167,56.65Z"/><path d="M20.791,56.65a.581.581,0,0,1-.581-.581V28.748a.581.581,0,1,1,1.161,0V56.069A.58.58,0,0,1,20.791,56.65Z"/><path d="M26.414,56.65a.58.58,0,0,1-.58-.581V28.748a.581.581,0,1,1,1.161,0V56.069A.581.581,0,0,1,26.414,56.65Z"/><path d="M100.656,62.135H78a.58.58,0,0,1-.58-.581V23.263a.579.579,0,0,1,.58-.58h22.659a.58.58,0,0,1,.581.58V61.554A.581.581,0,0,1,100.656,62.135ZM78.578,60.973h21.5V23.844h-21.5Z"/><path d="M83.7,56.65a.581.581,0,0,1-.581-.581V28.748a.581.581,0,1,1,1.161,0V56.069A.58.58,0,0,1,83.7,56.65Z"/><path d="M89.326,56.65a.58.58,0,0,1-.58-.581V28.748a.581.581,0,1,1,1.161,0V56.069A.581.581,0,0,1,89.326,56.65Z"/><path d="M94.95,56.65a.581.581,0,0,1-.581-.581V28.748a.581.581,0,0,1,1.162,0V56.069A.581.581,0,0,1,94.95,56.65Z"/><path d="M41,27.561a.581.581,0,0,1-.581-.581V19.544a.581.581,0,0,1,1.162,0V26.98A.581.581,0,0,1,41,27.561Z"/><path d="M46.623,27.561a.581.581,0,0,1-.581-.581V19.544a.581.581,0,0,1,1.161,0V26.98A.58.58,0,0,1,46.623,27.561Z"/><path d="M52.246,27.561a.58.58,0,0,1-.58-.581V19.544a.581.581,0,0,1,1.161,0V26.98A.581.581,0,0,1,52.246,27.561Z"/><path d="M57.87,27.561a.581.581,0,0,1-.581-.581V19.544a.581.581,0,0,1,1.162,0V26.98A.581.581,0,0,1,57.87,27.561Z"/><path d="M57.87,27.561a.581.581,0,0,1-.581-.581V19.544a.581.581,0,0,1,1.162,0V26.98A.581.581,0,0,1,57.87,27.561Z"/><path d="M63.494,27.561a.581.581,0,0,1-.581-.581V19.544a.581.581,0,0,1,1.161,0V26.98A.58.58,0,0,1,63.494,27.561Z"/><path d="M69.117,27.561a.58.58,0,0,1-.58-.581V19.544a.581.581,0,0,1,1.161,0V26.98A.581.581,0,0,1,69.117,27.561Z"/><path class="cls-1" d="M53.255,49.261a1.978,1.978,0,0,1-1.777,1.968A1.4,1.4,0,0,1,50.763,50a.605.605,0,0,1,.006-.1,1.389,1.389,0,0,1,1.045-1.249,1.374,1.374,0,0,1,.349-.046,1.4,1.4,0,0,1,1.086.511A1.164,1.164,0,0,1,53.255,49.261Z"/><path class="cls-1" d="M60.827,49.261a1.982,1.982,0,0,1-1.771,1.968H59.05A1.4,1.4,0,0,1,58.336,50a.725.725,0,0,1,.005-.1,1.4,1.4,0,0,1,1.051-1.249,1.374,1.374,0,0,1,.349-.046,1.388,1.388,0,0,1,1.08.511A1.164,1.164,0,0,1,60.827,49.261Z"/><path d="M53.249,49.116a1.983,1.983,0,1,0-1.975,2.125c.07,0,.134-.006.2-.012a1.978,1.978,0,0,0,1.777-1.968A1.164,1.164,0,0,0,53.249,49.116Zm-1.975.964a.782.782,0,0,1-.505-.18.8.8,0,0,1-.319-.639.822.822,0,0,1,.824-.819.8.8,0,0,1,.54.209.806.806,0,0,1,.279.61A.821.821,0,0,1,51.274,50.08Z"/><path d="M60.821,49.116a1.98,1.98,0,1,0-1.974,2.125c.069,0,.133-.006.2-.012h.006a1.982,1.982,0,0,0,1.771-1.968A1.164,1.164,0,0,0,60.821,49.116Zm-1.974.964a.782.782,0,0,1-.506-.18.8.8,0,0,1-.313-.639.819.819,0,1,1,.819.819Z"/><path d="M55.061,5.8a2.529,2.529,0,1,0,2.525,2.532A2.53,2.53,0,0,0,55.061,5.8Zm0,3.9a1.368,1.368,0,1,1,1.364-1.364A1.368,1.368,0,0,1,55.061,9.693Z"/><path class="cls-2" d="M64.607,36.387l-9.546-4.7-9.553,4.7-1.179.581H65.786Zm-17.781,0,8.235-4.053L63.3,36.387Z"/><path d="M66.343,36.817a.468.468,0,0,0-.064-.151.717.717,0,0,0-.1-.122.374.374,0,0,0-.117-.081c0-.006-.017-.012-.023-.018l-.029-.011-10.7-5.267a.568.568,0,0,0-.511,0L44.1,36.434l-.029.011a.122.122,0,0,0-.029.018.362.362,0,0,0-.081.058.186.186,0,0,0-.047.035.5.5,0,0,0-.081.11.375.375,0,0,0-.058.133c-.006,0-.006.006-.006.018a.419.419,0,0,0-.023.151.539.539,0,0,0,.017.133.572.572,0,0,0,.563.447H65.786a.584.584,0,0,0,.569-.447.5.5,0,0,0,.011-.128v0A.419.419,0,0,0,66.343,36.817Zm-19.517-.43,8.235-4.053L63.3,36.387Z"/><path d="M78.567,13.932a.507.507,0,0,0-.024-.07.294.294,0,0,0-.046-.1.651.651,0,0,0-.07-.1.38.38,0,0,0-.1-.087.055.055,0,0,0-.029-.023L55.351.083a.559.559,0,0,0-.587,0L31.822,13.555a.053.053,0,0,0-.03.023.562.562,0,0,0-.162.168.307.307,0,0,0-.041.076c-.006.005-.006.017-.011.023a.423.423,0,0,0-.03.093,1,1,0,0,0-.011.122.658.658,0,0,0,.023.151.577.577,0,0,0,.558.429H78a.584.584,0,0,0,.563-.429.706.706,0,0,0,.017-.151A1.105,1.105,0,0,0,78.567,13.932Zm-44.312-.453L55.061,1.256l20.8,12.223Z"/><path d="M55.641,36.968V61.351a.122.122,0,0,1-.006.046.351.351,0,0,1-.034.157.575.575,0,0,1-1.081,0,.352.352,0,0,1-.035-.157.144.144,0,0,1-.005-.046V36.968a.581.581,0,1,1,1.161,0Z"/></g></svg>