<svg xmlns="http://www.w3.org/2000/svg" viewBox="0 0 100 91.362"><defs><style>.cls-1{fill:#0095ff;}.cls-2{fill:#fff;}</style></defs><g id="레이어_2" data-name="레이어 2"><path class="cls-1" d="M93.873,47.737a.191.191,0,0,1,.006.058v.687h-1.17v-.344H69.022v.256h-.059V45.968l.053-.046.006-.006,5.754-5.429.536-.506a2.789,2.789,0,0,1,.389-.309c.082.058.163.117.239.181l3.84,3.113-.1.174.186.163.884.78,1,.878,1.845-1.78h.006L86.425,40.5l.553-.523a2.408,2.408,0,0,1,.366-.291,1.861,1.861,0,0,1,.222.157l5.143,4.166.949.768a.577.577,0,0,1,.215.454V47.5a.2.2,0,0,1,.006.059.194.194,0,0,1-.006.058Z"/><rect class="cls-1" x="7.931" y="7.868" width="39.927" height="27.88"/><path class="cls-2" d="M23.135,25.422a6.263,6.263,0,0,0,.1,1.088.515.515,0,0,1-.245.058H12.475a1.028,1.028,0,0,1-.524-.14l7.437-14.866.663,1.146,4.672,8.1A6.872,6.872,0,0,0,23.135,25.422Z"/><path class="cls-1" d="M42.61,58.471a3.235,3.235,0,0,1-3.218,2.915,3.076,3.076,0,0,1-.332-.017,1.549,1.549,0,0,1-.232-.035,2.158,2.158,0,0,1-.3-.308A2.656,2.656,0,0,1,40.87,56.7h.006a2.637,2.637,0,0,1,1.705.89A3.438,3.438,0,0,1,42.61,58.471Z"/><path class="cls-1" d="M40.387,78.848a3.234,3.234,0,0,1-3.223,2.915,3.03,3.03,0,0,1-.565-.052,2.369,2.369,0,0,1-.3-.3,2.657,2.657,0,0,1,2.345-4.323h.006a2.643,2.643,0,0,1,1.7.891A3.336,3.336,0,0,1,40.387,78.848Z"/><path class="cls-1" d="M49.039,84.929A3.2,3.2,0,0,1,47,85.656c-.111,0-.221-.006-.332-.017-.087-.012-.18-.024-.267-.041a2.437,2.437,0,0,1-.3-.3,2.655,2.655,0,0,1,2.38-4.317,2.655,2.655,0,0,1,1.7.907v.006A3.228,3.228,0,0,1,49.039,84.929Z"/><path class="cls-1" d="M59.623,82.939a3.212,3.212,0,0,1-2.042.727c-.111,0-.221-.006-.332-.017a1.689,1.689,0,0,1-.232-.035,2.116,2.116,0,0,1-.3-.309,2.657,2.657,0,0,1,2.345-4.323h.006a2.641,2.641,0,0,1,1.693.879A3.221,3.221,0,0,1,59.623,82.939Z"/><path d="M47.975,4.928H5.522a.58.58,0,0,0-.582.582V35.889a.576.576,0,0,0,.582.582H47.975a.579.579,0,0,0,.581-.582V5.51A.583.583,0,0,0,47.975,4.928ZM6.1,35.308V6.092H47.393V35.308Z"/><path class="cls-2" d="M37.227,25.183a6.409,6.409,0,0,1-6.406,6.4,6.208,6.208,0,0,1-2.193-.39h-.006a5.819,5.819,0,0,1,3.834-10.2,5.716,5.716,0,0,1,1.9.32,5.844,5.844,0,0,1,2.479,1.664v.006A6.4,6.4,0,0,1,37.227,25.183Z"/><path d="M40.887,21.356a.581.581,0,0,1-.582-.582V12.819H26.788a.582.582,0,1,1,0-1.163h14.1a.582.582,0,0,1,.582.582v8.536A.582.582,0,0,1,40.887,21.356Z"/><path d="M36.838,22.984v-.006a6.4,6.4,0,1,0-8.216,8.216h.006a6.208,6.208,0,0,0,2.193.39,6.4,6.4,0,0,0,6.017-8.6ZM30.821,30.42a5.239,5.239,0,1,1,5.243-5.237A5.226,5.226,0,0,1,30.821,30.42Z"/><path d="M26.219,18.381l-4.51-7.809a1.015,1.015,0,0,0-.878-.517,1.049,1.049,0,0,0-.891.512L11.591,25.038a1.008,1.008,0,0,0-.006,1.018,1.069,1.069,0,0,0,.366.372,1.028,1.028,0,0,0,.524.14H23a.515.515,0,0,0,.245-.058.579.579,0,0,0-.1-1.088A.56.56,0,0,0,23,25.4H12.719l7.332-12.7.774-1.344,4.381,7.6a.584.584,0,0,0,1.013-.582Z"/><path d="M53.479.477A.256.256,0,0,0,53.456.39.049.049,0,0,0,53.45.361a.122.122,0,0,0-.018-.029.511.511,0,0,0-.157-.2.2.2,0,0,0-.069-.047.323.323,0,0,0-.076-.04L53.019.012A.753.753,0,0,0,52.909,0H.593C.582,0,.57.006.558.006A.326.326,0,0,0,.483.018.53.53,0,0,0,.372.047.3.3,0,0,0,.3.087.473.473,0,0,0,.163.2.252.252,0,0,0,.116.262a.417.417,0,0,0-.04.07A.122.122,0,0,0,.058.361.129.129,0,0,0,.047.407.019.019,0,0,0,.041.419C.035.448.029.471.023.5A.439.439,0,0,0,.017.588V.64A.593.593,0,0,0,.18,1l1,1V2L4.94,5.749v.006l.169.162a.565.565,0,0,0,.407.175H47.975a.567.567,0,0,0,.407-.175l.174-.174L52.327,1.99l1-.995a.576.576,0,0,0,.169-.407V.582A.626.626,0,0,0,53.479.477ZM5.76,4.928,2,1.164H51.5L47.742,4.928Z"/><path d="M5.935,5.1l-.169-.169H5.76L2,1.164,1.007.175A.576.576,0,0,0,.483.018.53.53,0,0,0,.372.047.3.3,0,0,0,.3.087.473.473,0,0,0,.163.2.252.252,0,0,0,.116.262a.417.417,0,0,0-.04.07A.331.331,0,0,0,.047.407.019.019,0,0,0,.041.419C.035.448.029.471.023.5A.439.439,0,0,0,.017.588V40.829a.58.58,0,0,0,.355.536.639.639,0,0,0,.227.046.572.572,0,0,0,.408-.169l.977-.983,3.765-3.776.011-.012.175-.174a.6.6,0,0,0,.169-.408V5.51A.612.612,0,0,0,5.935,5.1ZM1.181,39.415V2L4.94,5.749v29.9Z"/><path d="M53.491.588V.582a.626.626,0,0,0-.012-.1A.256.256,0,0,0,53.456.39a.223.223,0,0,0-.024-.058.511.511,0,0,0-.157-.2.2.2,0,0,0-.069-.047.323.323,0,0,0-.076-.04L53.019.012A.753.753,0,0,0,52.909,0,.588.588,0,0,0,52.5.175L47.561,5.109a.582.582,0,0,0-.174.413v.57l.006,9.548L47.4,35.308v.57a.575.575,0,0,0,.169.413l4.934,4.934a.585.585,0,0,0,.413.169.571.571,0,0,0,.221-.041.483.483,0,0,0,.082-.041.457.457,0,0,0,.139-.122.4.4,0,0,0,.059-.081.575.575,0,0,0,.081-.3ZM52.339,39.41l-3.771-3.771-.012-19.917,0-9.962,0,0L52.327,1.99Z"/><path d="M42.581,57.593a3.254,3.254,0,0,0-2.869-2.671,3.238,3.238,0,0,0-2.839,5.272,3.179,3.179,0,0,0,1.955,1.14,1.549,1.549,0,0,0,.232.035,3.076,3.076,0,0,0,.332.017,3.235,3.235,0,0,0,3.218-2.915A3.438,3.438,0,0,0,42.581,57.593ZM40.7,59.757a2.077,2.077,0,0,1-2.752-.116,1.537,1.537,0,0,1-.168-.181,2.084,2.084,0,0,1-.46-1.524,2.092,2.092,0,0,1,2.065-1.868c.07,0,.14.006.21.012a2.054,2.054,0,0,1,1.28.623h.006a1.165,1.165,0,0,1,.116.127A2.078,2.078,0,0,1,40.7,59.757Z"/><path d="M40.358,77.976A3.246,3.246,0,1,0,36.6,81.711a3.03,3.03,0,0,0,.565.052,3.234,3.234,0,0,0,3.223-2.915A3.336,3.336,0,0,0,40.358,77.976Zm-1.879,2.158a2.07,2.07,0,0,1-2.758-.116,2.4,2.4,0,0,1-.169-.181,2.081,2.081,0,0,1,1.606-3.392c.069,0,.139.006.215.012a2.032,2.032,0,0,1,1.274.628h.006a1.166,1.166,0,0,1,.116.128A2.077,2.077,0,0,1,38.479,80.134Z"/><path d="M60.758,79.861a3.152,3.152,0,0,0-.675-1.484,3.24,3.24,0,1,0-5.021,4.1,3.18,3.18,0,0,0,1.955,1.141,1.689,1.689,0,0,0,.232.035c.111.011.221.017.332.017a3.228,3.228,0,0,0,3.177-3.8Zm-1.873,2.176a2.078,2.078,0,0,1-2.753-.117,1.609,1.609,0,0,1-.168-.18,2.086,2.086,0,0,1-.46-1.525,2.089,2.089,0,0,1,2.065-1.867,2.029,2.029,0,0,1,1.49.634h.006a1.175,1.175,0,0,1,.116.128A2.08,2.08,0,0,1,58.885,82.037Z"/><path d="M50.18,81.891v-.006a3.133,3.133,0,0,0-.681-1.518,3.24,3.24,0,1,0-5.021,4.1A3.159,3.159,0,0,0,46.4,85.6c.087.017.18.029.267.041.111.011.221.017.332.017a3.227,3.227,0,0,0,3.183-3.765ZM48.3,84.027a2.071,2.071,0,0,1-2.781-.152,1,1,0,0,1-.139-.145,2.075,2.075,0,0,1,3.1-2.752,1.185,1.185,0,0,1,.116.122A2.079,2.079,0,0,1,48.3,84.027Z"/><path d="M48.765,91.362A22.233,22.233,0,0,1,26.951,64.2a.582.582,0,1,1,1.136.256,21.009,21.009,0,0,0,4.237,18.011A21.251,21.251,0,0,0,59.4,87.317a21.565,21.565,0,0,0,2.641-1.843c.291-.243.583-.491.863-.746l.173-.162c.116-.106.231-.213.341-.32.011-.011.036-.032.049-.043.164-.161.351-.362.539-.563l.127-.134c.03-.035.073-.078.116-.121s.069-.068.1-.1l.024-.027.012-.013h0a6.187,6.187,0,0,0,1.85-4.986c-.34-4.739-4.8-5.835-6.694-6.086l-.938-.121c-3.378-.426-6.3-.8-8.79-3.85a10.6,10.6,0,0,1-2.065-8.668c.522-3.15.7-5.383-1.494-7.654a6.606,6.606,0,0,0-8.263-.958.507.507,0,0,1-.061.032l-.09.058c-.055.035-.109.071-.165.1l-.117.071c-.228.14-.459.28-.684.433a.686.686,0,0,1-.065.051c-.193.127-.377.261-.566.4-.306.223-.61.45-.905.691a22.22,22.22,0,0,0-2.342,2.225,20.857,20.857,0,0,0-4.049,6.64.582.582,0,1,1-1.089-.41A22.006,22.006,0,0,1,32.129,54.2,23.4,23.4,0,0,1,34.6,51.86c.311-.255.633-.5.954-.73.188-.139.373-.274.566-.4a.46.46,0,0,1,.054-.043c.255-.175.517-.335.776-.494l.253-.158c.055-.035.109-.071.165-.1a.624.624,0,0,1,.073-.038,7.747,7.747,0,0,1,9.649,1.177c2.56,2.65,2.349,5.37,1.806,8.651a9.572,9.572,0,0,0,1.817,7.742c2.2,2.7,4.775,3.021,8.035,3.433q.465.059.945.121c4.611.611,7.419,3.219,7.7,7.157a7.344,7.344,0,0,1-2.152,5.856l-.008.008-.005,0c-.05.058-.1.115-.16.17-.028.028-.056.055-.082.083l-.132.141c-.2.216-.4.43-.615.635a.6.6,0,0,1-.047.041c-.08.082-.2.195-.326.309l-.174.163c-.3.272-.6.531-.912.789a22.82,22.82,0,0,1-2.79,1.947A22.06,22.06,0,0,1,48.765,91.362Z"/><path d="M33.488,69.3,14.5,55.772a1.369,1.369,0,0,1,1.417-2.318l.054.028L36.02,65.205l-.588,1-20.014-11.7a.18.18,0,0,0-.233.085.186.186,0,0,0,.036.268L34.163,68.352Z"/><rect x="29.061" y="64.113" width="3.445" height="1.163" transform="translate(-40.299 55.73) rotate(-57.366)"/><path d="M38.587,72.319a5.837,5.837,0,0,1-3.7-1.01A3.738,3.738,0,0,1,33.85,66.38a.582.582,0,1,1,.984.62,2.594,2.594,0,0,0,.766,3.389c1.135.88,2.769.8,4.35.721.371-.019.733-.037,1.08-.042.365,0,.729-.013,1.094-.033a.57.57,0,0,1,.613.549.582.582,0,0,1-.549.613c-.381.021-.761.029-1.141.034-.333.006-.682.023-1.039.041C39.547,72.3,39.068,72.319,38.587,72.319Z"/><path d="M42.156,72.2a.583.583,0,0,1-.538-.36c-.139-.337-.29-.671-.441-1-.144-.314-.284-.648-.426-.989-.612-1.462-1.244-2.975-2.529-3.621A2.6,2.6,0,0,0,34.835,67a.582.582,0,1,1-.984-.621,3.742,3.742,0,0,1,4.893-1.191c1.672.841,2.42,2.632,3.08,4.213.138.329.272.65.411.953.158.346.315.693.459,1.043a.582.582,0,0,1-.538.8Z"/><path d="M99.983,25.2a.353.353,0,0,0-.024-.076.565.565,0,0,0-.1-.163.384.384,0,0,0-.07-.07.225.225,0,0,0-.075-.052.948.948,0,0,0-.163-.064.083.083,0,0,0-.041-.012.278.278,0,0,0-.07-.012.037.037,0,0,0-.023,0H62.33c-.017,0-.035.011-.052.011a.285.285,0,0,0-.07.012.4.4,0,0,0-.11.029h-.006a.511.511,0,0,0-.152.1.592.592,0,0,0-.023.844l6.11,6.109a.573.573,0,0,0,.413.169H69l7.722.006,15.983.011h.582a.582.582,0,0,0,.413-.174l.169-.169,5.958-5.952a.572.572,0,0,0,.169-.408A.515.515,0,0,0,99.983,25.2Zm-6.919,5.661-.011.012L76.8,30.857l-8.123-.006-4.946-4.946H98.016L93.07,30.857Z"/><path d="M100,25.329V62.505a.774.774,0,0,1-.012.116.333.333,0,0,1-.035.1v.006a.43.43,0,0,1-.1.162.487.487,0,0,1-.134.111.307.307,0,0,1-.076.041.573.573,0,0,1-.221.04.588.588,0,0,1-.413-.168l-.989-.989-4.952-4.952h-.006l-.005-.012h-.006l-.163-.163a.573.573,0,0,1-.169-.413V47.8a.583.583,0,0,1,1.152-.122v.006a.173.173,0,0,1,.006.058.191.191,0,0,1,.006.058v8.356L98.836,61.1V26.738L93.89,31.683l0,10.008v1.49a.689.689,0,0,1-.012.116.582.582,0,0,1-1.152-.116v-2.06l.006-9.089v-.587a.576.576,0,0,1,.168-.413l6.11-6.11a.6.6,0,0,1,.436-.175.278.278,0,0,1,.07.012.083.083,0,0,1,.041.012.235.235,0,0,1,.087.023.307.307,0,0,1,.076.041.225.225,0,0,1,.075.052.384.384,0,0,1,.07.07.565.565,0,0,1,.1.163.353.353,0,0,1,.024.076A.515.515,0,0,1,100,25.329Z"/><path d="M69.016,48.394V44.182l-.006-1.606L69,32.015v-.576a.56.56,0,0,0-.169-.407l-6.109-6.11a.549.549,0,0,0-.518-.157.4.4,0,0,0-.11.029h-.006a.511.511,0,0,0-.152.1.571.571,0,0,0-.2.442V62.511a.577.577,0,0,0,.355.535c.017.006.04.011.058.017a.547.547,0,0,0,.576-.145l5.946-5.941.181-.181a.6.6,0,0,0,.169-.413v-.57Zm-1.158,7.751L62.9,61.1V26.738l4.94,4.945Z"/><path d="M99.831,62.1l-1-1-4.957-4.951-.175-.175a.578.578,0,0,0-.413-.174h-.582l-15.983.011-7.7.006H68.44a.573.573,0,0,0-.413.169l-.169.168L61.917,62.1a.587.587,0,0,0,.233.966.6.6,0,0,0,.18.029H99.418a.579.579,0,0,0,.221-.046.307.307,0,0,0,.076-.041.487.487,0,0,0,.134-.111.43.43,0,0,0,.1-.162v-.006a.333.333,0,0,0,.035-.1.774.774,0,0,0,.012-.116A.572.572,0,0,0,99.831,62.1Zm-36.1-.168,4.946-4.946,8.123-.006,16.246-.012h.006l.005.012h.006l4.952,4.952Z"/><path d="M93.291,30.857H68.44a.584.584,0,0,0-.582.582V56.4a.584.584,0,0,0,.582.582H93.291a.58.58,0,0,0,.582-.582V31.439A.58.58,0,0,0,93.291,30.857ZM69.022,55.813V32.021H92.709V55.813Z"/><path d="M93.879,47.557a.194.194,0,0,1-.006.058.175.175,0,0,1-.006.058v.006a.58.58,0,0,1-.57.459H68.44a.582.582,0,1,1,0-1.163H82.882l-7.675-6.22a1.969,1.969,0,0,0-.431-.268,2.062,2.062,0,0,0-2.263.372l-3.491,3.317-.006.006-.175.163a.586.586,0,0,1-.826-.024.584.584,0,0,1,.023-.82l.972-.925.012-.006,2.694-2.554a3.223,3.223,0,0,1,3.985-.344c.082.058.163.117.239.181l4.079,3.305.919.745,3.794,3.072H93.3a.58.58,0,0,1,.576.523A.2.2,0,0,1,93.879,47.557Z"/><path d="M93.873,45.235a.578.578,0,0,1-.128.367.6.6,0,0,1-.454.215.585.585,0,0,1-.366-.128l-.216-.175-5.877-4.759a1.727,1.727,0,0,0-.407-.251,2.057,2.057,0,0,0-2.287.361l-1.571,1.49L80.938,43.9l-.192.18-.279.262a.585.585,0,0,1-.8-.85l.2-.192.157-.145,1.635-1.548,1.682-1.594a3.23,3.23,0,0,1,4.008-.326,1.861,1.861,0,0,1,.222.157l5.143,4.166.949.768A.577.577,0,0,1,93.873,45.235Z"/><path d="M79.235,51.182h-7.3a.582.582,0,0,1,0-1.164h7.3a.582.582,0,0,1,0,1.164Z"/><path d="M84.151,53.778h-7.3a.582.582,0,1,1,0-1.163h7.3a.582.582,0,1,1,0,1.163Z"/><path d="M87.911,53.778H86.348a.582.582,0,1,1,0-1.163h1.563a.582.582,0,1,1,0,1.163Z"/><path d="M83.038,51.182H81.475a.582.582,0,1,1,0-1.164h1.563a.582.582,0,1,1,0,1.164Z"/><path class="cls-2" d="M39.17,20.764V13.952H26.8a.594.594,0,0,0-.594.594h0a.594.594,0,0,0,.594.594H37.982v5.624a.594.594,0,0,0,.594.594h0A.594.594,0,0,0,39.17,20.764Z"/><path d="M53.322,40.416l-4.766-4.759-.174-.175a.58.58,0,0,0-.413-.174h-.576L6.1,35.319H5.5a.567.567,0,0,0-.407.175l-.157.157L1.181,39.415.169,40.428a.576.576,0,0,0-.152.279.533.533,0,0,0,.03.355.583.583,0,0,0,.535.361l52.327-.012a.545.545,0,0,0,.232-.058.483.483,0,0,0,.082-.041.457.457,0,0,0,.139-.122.4.4,0,0,0,.059-.081.219.219,0,0,1,.023-.058A.58.58,0,0,0,53.322,40.416ZM1.984,40.259l3.765-3.776,41.981-.012L51.5,40.247Z"/></g></svg>