<svg id="레이어_1" data-name="레이어 1" xmlns="http://www.w3.org/2000/svg" viewBox="0 0 48 40"><path d="M47.04,3.115a.967.967,0,0,0-.96.975V38.049H34.2l9.41-1.816a.972.972,0,0,0,.781-.958V.974c0-.028-.016-.053-.018-.081s.007-.066,0-.1a.935.935,0,0,0-.051-.127.96.96,0,0,0-.064-.159.956.956,0,0,0-.147-.193.858.858,0,0,0-.069-.09C44.03.213,44.014.211,44,.2a.962.962,0,0,0-.234-.121,1.169,1.169,0,0,0-.121-.053.94.94,0,0,0-.4-.012L24,3.732,4.753.016a.931.931,0,0,0-.4.013.9.9,0,0,0-.1.042A.957.957,0,0,0,4,.2c-.011.008-.025.01-.036.019-.028.023-.04.059-.065.085a.928.928,0,0,0-.152.2.971.971,0,0,0-.063.157.948.948,0,0,0-.051.128.849.849,0,0,0,0,.1c0,.028-.018.053-.018.081v34.3a.972.972,0,0,0,.781.958l9.41,1.816H1.92V4.09a.967.967,0,0,0-.96-.975A.967.967,0,0,0,0,4.09V39.025A.967.967,0,0,0,.96,40H47.04a.967.967,0,0,0,.96-.975V4.09A.967.967,0,0,0,47.04,3.115Zm-24,34.731L5.534,34.467V2.152L23.04,5.532ZM24.964,5.532,42.47,2.152V34.467L24.964,37.846Z"/><path d="M8.875,10.021l10.467,2.024a.914.914,0,0,0,.18.017.964.964,0,0,0,.942-.793.975.975,0,0,0-.764-1.14L9.233,8.105a.962.962,0,0,0-1.122.776A.975.975,0,0,0,8.875,10.021Z"/><path d="M8.874,16.626l10.467,2.025a1.017,1.017,0,0,0,.181.017.977.977,0,0,0,.179-1.933L9.234,14.71a.958.958,0,0,0-1.123.775A.976.976,0,0,0,8.874,16.626Z"/><path d="M8.875,23.232l10.467,2.024a1,1,0,0,0,.18.017A.976.976,0,0,0,19.7,23.34L9.233,21.315a.962.962,0,0,0-1.122.777A.975.975,0,0,0,8.875,23.232Z"/><path d="M8.874,29.837l10.467,2.025a1.017,1.017,0,0,0,.181.017.966.966,0,0,0,.942-.793.976.976,0,0,0-.763-1.141L9.234,27.92a.96.96,0,0,0-1.123.775A.976.976,0,0,0,8.874,29.837Z"/><path d="M38.771,8.105,28.305,10.129a.975.975,0,0,0-.764,1.14.964.964,0,0,0,.942.793.921.921,0,0,0,.18-.017l10.466-2.024a.975.975,0,0,0-.358-1.916Z"/><path d="M38.77,14.71,28.3,16.735a.975.975,0,0,0-.763,1.141.965.965,0,0,0,.942.792.939.939,0,0,0,.181-.017L39.13,16.626a.974.974,0,0,0,.763-1.141A.961.961,0,0,0,38.77,14.71Z"/><path d="M38.771,21.315,28.305,23.339a.976.976,0,0,0-.764,1.141.965.965,0,0,0,.942.793,1.006,1.006,0,0,0,.18-.017l10.466-2.024a.975.975,0,0,0-.358-1.917Z"/><path d="M38.77,27.92,28.3,29.945a.976.976,0,0,0-.763,1.141.965.965,0,0,0,.942.793,1.025,1.025,0,0,0,.181-.017L39.13,29.837a.974.974,0,0,0,.763-1.141A.963.963,0,0,0,38.77,27.92Z"/></svg>