<svg id="레이어_1" data-name="레이어 1" xmlns="http://www.w3.org/2000/svg" viewBox="0 0 48 48"><path d="M47.948,17.608a.83.83,0,0,0-.054-.164l-2.719-5.877a.958.958,0,0,0-.871-.557H34.387V6.854c0-.014-.007-.026-.008-.04a.942.942,0,0,0-.06-.3c-.006-.015-.008-.03-.014-.044L34.3,6.452,31.578.558A.961.961,0,0,0,30.706,0H17.294a.961.961,0,0,0-.872.558L13.7,6.452,13.7,6.47c-.006.014-.008.029-.014.043a.954.954,0,0,0-.06.3c0,.014-.008.026-.008.04V11.01H3.686a.959.959,0,0,0-.871.557L.089,17.46l0,.017c-.007.016-.01.033-.016.05a.969.969,0,0,0-.06.295c0,.014-.008.026-.008.041V47.029a.96.96,0,0,0,.96.96H23.946c.02,0,.036.011.056.011s.036-.01.056-.011H47.04a.96.96,0,0,0,.96-.96V17.863a.9.9,0,0,0-.021-.106A.939.939,0,0,0,47.948,17.608ZM13.613,46.069H1.92v-7.81c1.313-.01,4.465-.02,11.693-.021Zm0-9.751c-7.108,0-10.26.005-11.693.023v-7.8c1.313-.011,4.465-.02,11.693-.021Zm0-9.722c-7.108,0-10.26,0-11.693.023v-7.8H13.613Zm0-9.693H2.462L4.3,12.929h9.313Zm4.3-14.984H30.092l1.835,3.975H16.073Zm5.134,44.132H19.8V36.495a4.2,4.2,0,0,1,3.24-4.077Zm5.159,0H24.962V32.418A4.2,4.2,0,0,1,28.2,36.495ZM32.467,11.97V46.051H30.121V36.495a6.12,6.12,0,0,0-12.239,0v9.556H15.533V7.814H32.467Zm1.92.959h9.3L45.529,16.9H34.387ZM46.08,46.069H34.387V38.25c5.4.013,9.828.021,11.693.025Zm0-9.714c-1.867,0-6.3-.012-11.693-.025v-7.8c5.4.014,9.828.022,11.693.025Zm0-9.722c-1.867,0-6.3-.012-11.693-.025V18.823H46.08Z"/><rect x="6.293" y="20.551" width="2.951" height="4.31" rx="0.96"/><rect x="19.459" y="12.073" width="2.951" height="4.311" rx="0.96"/><rect x="25.593" y="12.073" width="2.952" height="4.311" rx="0.96"/><rect x="19.459" y="20.643" width="2.951" height="4.31" rx="0.96"/><rect x="25.593" y="20.643" width="2.952" height="4.31" rx="0.96"/><rect x="6.286" y="30.267" width="2.951" height="4.311" rx="0.96"/><rect x="6.293" y="39.979" width="2.951" height="4.311" rx="0.96"/><rect x="38.747" y="20.551" width="2.952" height="4.31" rx="0.96"/><rect x="38.752" y="30.267" width="2.952" height="4.311" rx="0.96"/><rect x="38.752" y="39.979" width="2.952" height="4.311" rx="0.96"/></svg>