<svg id="레이어_1" data-name="레이어 1" xmlns="http://www.w3.org/2000/svg" viewBox="0 0 48 48"><path d="M24,0A24.038,24.038,0,0,0,1.4,15.944v0A24,24,0,1,0,24,0ZM7.676,38.853A22,22,0,0,1,1.944,24.96H7.676Zm7.688,5.467A22.122,22.122,0,0,1,9.6,40.714V24.96h5.768Zm7.676,1.736a21.946,21.946,0,0,1-5.756-1.024V24.96H23.04Zm0-23.016H1.944a21.951,21.951,0,0,1,1.025-5.761H23.04Zm0-7.681H3.683A22.077,22.077,0,0,1,7.29,9.592H23.04Zm0-7.687H9.152A21.994,21.994,0,0,1,23.04,1.944Zm9.584-4a22.132,22.132,0,0,1,5.768,3.6V23.04H32.624ZM24.96,1.944A21.951,21.951,0,0,1,30.7,2.964V23.04H24.96Zm0,44.112V40.325H38.852A22,22,0,0,1,24.96,46.056Zm15.753-7.651H24.96V32.636H44.32A22.141,22.141,0,0,1,40.713,38.405Zm4.319-7.689H24.96V24.96h21.1A21.946,21.946,0,0,1,45.032,30.716Zm-4.72-7.676V9.135A21.993,21.993,0,0,1,46.056,23.04Z"/></svg>