<svg xmlns="http://www.w3.org/2000/svg" viewBox="0 0 74.342 90.043"><defs><style>.cls-1{fill:#0095ff;}</style></defs><g id="레이어_2" data-name="레이어 2"><path class="cls-1" d="M40.666,14.372v.011c-.831-.017-1.649-.04-1.748-.046a17.875,17.875,0,0,1-4.959-.842,8.759,8.759,0,0,1-3.693-2.34,6.6,6.6,0,0,1-.024-8.827,5.875,5.875,0,0,1,1.62-1.161h.006A6.137,6.137,0,0,1,35.056.6a5.787,5.787,0,0,1,.563.261,7.823,7.823,0,0,1,2.2,1.678,9.038,9.038,0,0,1,1.742,2.863,15.465,15.465,0,0,1,.906,3.914A32.934,32.934,0,0,1,40.666,14.372Z"/><path class="cls-1" d="M52.843,11.544a9.371,9.371,0,0,1-3.926,2.5,23.635,23.635,0,0,1-2.77.291,34.629,34.629,0,0,1-3.553.011l-.018-.557a32.639,32.639,0,0,1,.215-4.4,11.2,11.2,0,0,1,2.5-6.451,7.254,7.254,0,0,1,2.038-1.556c.145-.076.291-.146.436-.209A6.984,6.984,0,0,1,50.944.592a6.3,6.3,0,0,1,1.9,1.324A7.16,7.16,0,0,1,52.843,11.544Z"/><path class="cls-1" d="M50.752,30.143c.035,3.478-2.381,6.3-4.994,8.821a25.069,25.069,0,0,1-2.572,2.078,23.252,23.252,0,0,0-2.567,2.108c-1.231-.969-2.59-1.858-3.71-2.938a21.859,21.859,0,0,1-3.444-4.024A8.062,8.062,0,0,1,32.1,31.821a5.112,5.112,0,0,1,6.114-5.005.774.774,0,0,1,.134.029,4.735,4.735,0,0,1,2.723,1.6,5.018,5.018,0,0,1,1.15,3.194h.012a4.653,4.653,0,0,1,3.8-4.825,5.4,5.4,0,0,1,2.12.04,5.127,5.127,0,0,1,2.119,1A5.927,5.927,0,0,1,50.752,30.143Z"/><path d="M20.762,90.043l-.821-.822,6.4-6.4a1.123,1.123,0,0,0,0-1.586L8.811,63.7a1.124,1.124,0,0,0-1.586,0l-6.4,6.4L0,69.28l6.4-6.4a2.338,2.338,0,0,1,3.228,0L27.166,80.41a2.285,2.285,0,0,1,0,3.229Z"/><path d="M49.85,77.931H23.285V76.77H49.85A8.418,8.418,0,0,0,55.7,74.423L72.086,58.6l.807.836L56.5,75.261A9.579,9.579,0,0,1,49.85,77.931Z"/><rect x="52.158" y="57.892" width="16.454" height="1.161" transform="translate(-23.624 55.643) rotate(-42.149)"/><path d="M53.586,68.392h-18V67.231h18a1.362,1.362,0,0,0,1.36-1.361,1.187,1.187,0,0,0-.418-.906L52.542,63.27a9.35,9.35,0,0,0-6-2.233l-6.668-.045a5.02,5.02,0,0,1-2.971-1.006l-.193-.145a14.057,14.057,0,0,0-6.554-2.774,14.2,14.2,0,0,0-4.62.147,14.783,14.783,0,0,0-7.265,3.827l-5.823,5.5-.8-.845,5.823-5.5a15.94,15.94,0,0,1,7.837-4.122,14.871,14.871,0,0,1,12.1,2.839l.193.146a3.854,3.854,0,0,0,2.28.771l6.668.045A10.522,10.522,0,0,1,53.3,62.386l1.986,1.694a2.353,2.353,0,0,1,.825,1.79A2.524,2.524,0,0,1,53.586,68.392Z"/><path d="M28.216,51.547a5.39,5.39,0,0,1-2.635-.692A5.361,5.361,0,0,1,22.409,45.9l.134-15.464-.707.022h-.048a5.39,5.39,0,0,1-5.356-4.7l0,0-.014-.1a5.3,5.3,0,0,1-.08-.956l.023-2.65-.023-2.791a5.412,5.412,0,0,1,4.933-5.415l.059,0,.071-.005c.093-.007.186-.014.281-.015H58.6c.107,0,.2.008.293.015l.071.005.069,0a5.409,5.409,0,0,1,4.923,5.414l-.023,2.8.023,2.639a5.277,5.277,0,0,1-.084.978l-.006.047,0,.016,0,.016a5.389,5.389,0,0,1-5.345,4.7h-.047l-.721-.022L57.882,45.9a5.977,5.977,0,0,1-5.855,5.65l-11.887-.1-11.876.1ZM40.14,50.283l11.9.1h.038a4.819,4.819,0,0,0,4.646-4.479l-.14-16.067a.583.583,0,0,1,.175-.421.625.625,0,0,1,.423-.165l1.311.04h.037A4.225,4.225,0,0,0,62.709,25.6l0-.018V25.57l.008-.048.005-.04a4.234,4.234,0,0,0,.068-.775l-.023-2.65.023-2.812A4.245,4.245,0,0,0,58.925,15l-.06,0-.062,0c-.068-.006-.135-.011-.2-.012h-.1a.238.238,0,0,1-.06,0H21.68c-.057,0-.124.006-.192.012L21.409,15a4.251,4.251,0,0,0-3.911,4.25l.022,2.8L17.5,24.706a4.112,4.112,0,0,0,.067.776l.009.059,0,.026,0,.033a4.257,4.257,0,0,0,4.23,3.694l1.3-.04a.613.613,0,0,1,.423.165.583.583,0,0,1,.175.421l-.14,16.067A4.231,4.231,0,0,0,26.1,49.818a4.321,4.321,0,0,0,2.117.568h.038ZM63.286,25.666h0Z"/><path d="M40.142,43.385h0a.583.583,0,0,1-.416-.175A21.371,21.371,0,0,0,37.1,41.047a25.455,25.455,0,0,1-2.568-2.08c-2.614-2.523-5.028-5.337-4.987-8.815a5.619,5.619,0,0,1,2.017-4.336,5.881,5.881,0,0,1,4.775-1.235,5.341,5.341,0,0,1,3.889,2.872,5.026,5.026,0,0,1,3.738-2.875,5.867,5.867,0,0,1,4.776,1.233,5.61,5.61,0,0,1,2.013,4.334c.038,3.478-2.377,6.293-4.993,8.818a25.751,25.751,0,0,1-2.57,2.082,21.557,21.557,0,0,0-2.63,2.165A.582.582,0,0,1,40.142,43.385ZM35.283,25.651A4.652,4.652,0,0,0,32.3,26.709a4.479,4.479,0,0,0-1.6,3.457c-.035,3.037,2.2,5.623,4.632,7.965a24.738,24.738,0,0,0,2.453,1.982,27.455,27.455,0,0,1,2.353,1.881A27.442,27.442,0,0,1,42.5,40.112a24.675,24.675,0,0,0,2.455-1.985c2.429-2.344,4.673-4.931,4.639-7.969A4.469,4.469,0,0,0,48,26.7a4.7,4.7,0,0,0-3.834-.981,4.084,4.084,0,0,0-3.327,4.262.579.579,0,0,1-.556.575c-.012,0-.023,0-.036,0a.58.58,0,0,1-.58-.576,4.262,4.262,0,0,0-3.526-4.259A4.942,4.942,0,0,0,35.283,25.651Z"/><path d="M50.276,27.861a5.474,5.474,0,0,0-1.539-2.05,5.841,5.841,0,0,0-4.773-1.231,5.017,5.017,0,0,0-3.74,2.875,5.328,5.328,0,0,0-3.89-2.875,5.886,5.886,0,0,0-4.773,1.237,5.59,5.59,0,0,0-2.015,4.338c-.047,3.472,2.369,6.288,4.982,8.815A26.609,26.609,0,0,0,37.1,41.048a21.607,21.607,0,0,1,2.625,2.16.567.567,0,0,0,.418.175.544.544,0,0,0,.412-.175.819.819,0,0,1,.064-.058,23.252,23.252,0,0,1,2.567-2.108,25.069,25.069,0,0,0,2.572-2.078c2.613-2.526,5.029-5.343,4.994-8.821A5.927,5.927,0,0,0,50.276,27.861ZM44.951,38.127A24.083,24.083,0,0,1,42.5,40.113,27.453,27.453,0,0,0,40.143,42a28.252,28.252,0,0,0-2.352-1.882,24.872,24.872,0,0,1-2.456-1.98c-.65-.627-1.289-1.277-1.87-1.945-1.6-1.823-2.787-3.8-2.758-6.022a4.447,4.447,0,0,1,1.6-3.455,4.64,4.64,0,0,1,2.979-1.063,5.344,5.344,0,0,1,.853.076,4.2,4.2,0,0,1,2.213,1.121,4.382,4.382,0,0,1,1.312,3.141.578.578,0,0,0,.581.575h.035a.58.58,0,0,0,.557-.575,5.218,5.218,0,0,1,.238-1.539,3.875,3.875,0,0,1,3.089-2.723,4.67,4.67,0,0,1,3.833.981,1.437,1.437,0,0,1,.163.151,4.457,4.457,0,0,1,1.434,3.3C49.626,33.2,47.378,35.781,44.951,38.127Z"/><path d="M40.468,9.32a15.465,15.465,0,0,0-.906-3.914A9.038,9.038,0,0,0,37.82,2.543a7.823,7.823,0,0,0-2.2-1.678A5.787,5.787,0,0,0,35.056.6a6.854,6.854,0,0,0-7.612,1.312,7.16,7.16,0,0,0,.005,9.628c2.486,2.712,6.144,3.228,9.053,3.373,1.045.053,1.812.07,2.369.07,1.377,0,1.516-.122,1.609-.2a.622.622,0,0,0,.186-.4v-.011A32.934,32.934,0,0,0,40.468,9.32ZM28.3,10.76a6.05,6.05,0,0,1-.035-8.025,5.337,5.337,0,0,1,3.594-1.568h.006c.087-.006.18-.006.267-.006a6.453,6.453,0,0,1,2.95.737,6.7,6.7,0,0,1,1.882,1.429,10.531,10.531,0,0,1,2.346,6.126,31.585,31.585,0,0,1,.209,4.361c-.848.012-2.613-.04-2.962-.058a22.238,22.238,0,0,1-2.6-.261A9.55,9.55,0,0,1,28.3,10.76Z"/><path d="M52.848,1.916a6.3,6.3,0,0,0-1.9-1.324,7.2,7.2,0,0,0-6.272.273,7.927,7.927,0,0,0-2.2,1.678A11.574,11.574,0,0,0,39.824,9.32a33.749,33.749,0,0,0-.2,5.052.616.616,0,0,0,.192.412c.093.081.227.2,1.609.2.557,0,1.324-.017,2.369-.07a18.348,18.348,0,0,0,5.127-.871,9.371,9.371,0,0,0,3.926-2.5A7.16,7.16,0,0,0,52.848,1.916Zm-.859,8.844c-2.2,2.4-5.569,2.862-8.257,3-.163.012-.622.023-1.156.035-.627.017-1.353.029-1.812.023a32.6,32.6,0,0,1,.215-4.361,14.423,14.423,0,0,1,.807-3.565,7.938,7.938,0,0,1,1.539-2.561A6.717,6.717,0,0,1,45.207,1.9a6.534,6.534,0,0,1,2.555-.725,5.411,5.411,0,0,1,4.262,1.562A6.05,6.05,0,0,1,51.989,10.76Z"/><path d="M72.9,59.423l-.821-.821a3.735,3.735,0,0,0,1.1-2.633,3.641,3.641,0,0,0-1.07-2.613,3.715,3.715,0,0,0-5.246.034l-.821-.821A4.847,4.847,0,1,1,72.9,59.423Z"/></g></svg>