<svg xmlns="http://www.w3.org/2000/svg" viewBox="0 0 113.093 84.005"><defs><style>.cls-1{fill:#0095ff;}</style></defs><g id="레이어_2" data-name="레이어 2"><path class="cls-1" d="M46.715,43.8v1.173c0,3.042-2.875,5.516-6.411,5.516a7.227,7.227,0,0,1-2.608-.482A4.66,4.66,0,0,1,36.28,47.76a4.189,4.189,0,0,1-.151-1.115c0-2.723,2.613-4.93,5.83-4.93a6.588,6.588,0,0,1,2.293.4,5.838,5.838,0,0,1,1.3.657,5.337,5.337,0,0,1,.947.784v.005C46.575,43.637,46.645,43.718,46.715,43.8Z"/><path class="cls-1" d="M69.774,35.624v1.718c-.018,3.031-2.887,5.494-6.411,5.494a7.3,7.3,0,0,1-1.69-.2,5.049,5.049,0,0,1-1.823-2.1h-.006a4.287,4.287,0,0,1-.389-1.777c0-2.724,2.607-4.93,5.83-4.93a6.826,6.826,0,0,1,1.44.151.006.006,0,0,0,.006.006,6.244,6.244,0,0,1,1.881.726,5.983,5.983,0,0,1,.656.452v.006A4.126,4.126,0,0,1,69.774,35.624Z"/><path class="cls-1" d="M77.822,61.261v1.155c0,3.043-2.875,5.517-6.411,5.517A7.279,7.279,0,0,1,68.92,67.5a4.823,4.823,0,0,1-1.7-2.468,4.174,4.174,0,0,1-.156-1.144c0-2.723,2.607-4.93,5.824-4.93a6.52,6.52,0,0,1,2.207.372,5.794,5.794,0,0,1,1.567.8,5.27,5.27,0,0,1,.941.854C77.677,61.075,77.752,61.168,77.822,61.261Z"/><path d="M69.774,5.782v31.56a.581.581,0,0,1-1.162-.006V6.63l-21.9,8.559V44.973a.581.581,0,0,1-1.162,0V14.794a.581.581,0,0,1,.366-.54L68.984,5.242a.586.586,0,0,1,.534.058A.578.578,0,0,1,69.774,5.782Z"/><path d="M46.133,23.557a.581.581,0,0,1-.205-1.124l23.025-8.675a.581.581,0,0,1,.41,1.087L46.337,23.52A.583.583,0,0,1,46.133,23.557Z"/><path d="M46.5,43.561v-.005a5.194,5.194,0,0,0-.947-1.737A6.75,6.75,0,0,0,40.3,39.462c-3.531,0-6.405,2.473-6.405,5.511a5.552,5.552,0,0,0,3.8,5.034,7.227,7.227,0,0,0,2.608.482c3.536,0,6.411-2.474,6.411-5.516A4.792,4.792,0,0,0,46.5,43.561Zm-6.2,5.767A5.7,5.7,0,0,1,36.28,47.76a3.926,3.926,0,0,1-1.22-2.787c0-2.4,2.352-4.35,5.244-4.35a5.712,5.712,0,0,1,3.948,1.492,3.9,3.9,0,0,1,1.3,2.858C45.553,47.371,43.2,49.328,40.3,49.328Z"/><path d="M69.268,35.176V35.17a5.33,5.33,0,0,0-.656-1,6.746,6.746,0,0,0-5.249-2.358c-3.531,0-6.405,2.474-6.405,5.511a5.731,5.731,0,0,0,4.715,5.319,7.3,7.3,0,0,0,1.69.2c3.524,0,6.393-2.463,6.411-5.494v-.023A4.817,4.817,0,0,0,69.268,35.176Zm-5.905,6.5a5.791,5.791,0,0,1-3.513-1.132h-.006a4.051,4.051,0,0,1-1.725-3.223c0-2.4,2.352-4.349,5.244-4.349a5.877,5.877,0,0,1,3.362,1.016.006.006,0,0,0,.006.006,4.073,4.073,0,0,1,1.881,3.327v.017C68.6,39.735,66.255,41.674,63.363,41.674Z"/><path d="M112.75,30.67a2.433,2.433,0,1,0-2.689,3.606,2.4,2.4,0,0,0,.6.076,2.436,2.436,0,0,0,2.085-3.682Zm-1.44,2.34a1.274,1.274,0,0,1-1.742-.441,1.272,1.272,0,0,1,1.092-1.922,1.256,1.256,0,0,1,1.091.621A1.27,1.27,0,0,1,111.31,33.01Z"/><path d="M101.163,32.045a.574.574,0,0,1-.158-.022.58.58,0,0,1-.419-.624c.5-4.416.832-8.287,1-11.834l.01-.211c.233-4.929.5-10.516-1.015-15.3-.409-1.291-1.013-2.786-2.072-2.888-1.445-.145-3.262,1.281-5.41,4.22a53.7,53.7,0,0,0-6.251,11.794.581.581,0,1,1-1.078-.432A54.8,54.8,0,0,1,92.161,4.705c.9-1.228,3.609-4.966,6.459-4.691,1.959.189,2.737,2.645,3.068,3.693,1.576,4.979,1.306,10.676,1.067,15.7l-.009.211c-.127,2.675-.343,5.531-.657,8.661,1.945-3.709,5.045-8.77,7.3-8.253,1.475.338,2.1,2.551,2.03,7.176a.58.58,0,0,1-.58.572h-.009a.581.581,0,0,1-.572-.59c.084-5.47-.925-5.98-1.128-6.027-1.432-.334-4.961,5.225-7.438,10.55A.58.58,0,0,1,101.163,32.045Z"/><path d="M35.594,67.271a2.431,2.431,0,1,0-2.415,2.758,2.176,2.176,0,0,0,.331-.023,2.431,2.431,0,0,0,2.084-2.735Zm-1.4,1.1a1.266,1.266,0,0,1-.842.488,1.247,1.247,0,0,1-.941-.25,1.272,1.272,0,1,1,2.033-1.178,1.669,1.669,0,0,1,.011.168A1.29,1.29,0,0,1,34.2,68.368Z"/><path d="M3.906,53.857a2.433,2.433,0,1,0,.459,3.409A2.432,2.432,0,0,0,3.906,53.857Zm-.464,2.706A1.271,1.271,0,1,1,3.2,54.78,1.28,1.28,0,0,1,3.442,56.563Z"/><path d="M45.863,84.005c-1.961,0-4.052-2.061-4.788-2.788a40.836,40.836,0,0,1-6.148-8.1.58.58,0,1,1,.994-.6A39.7,39.7,0,0,0,41.89,80.39c1.886,1.859,3.346,2.668,4.328,2.41.687-.181.937-1.366,1.065-2.242.534-3.66-.325-7.712-1.082-11.287l-.033-.151c-.546-2.58-1.248-5.376-2.144-8.546a.58.58,0,0,1,1.038-.485c2.681,3.943,5.722,7.111,6.535,6.793.03-.013.738-.351.016-4.39a.581.581,0,0,1,1.144-.2c.619,3.465.4,5.213-.722,5.669-1.539.623-4.112-2.115-6.053-4.62.518,1.975.955,3.807,1.323,5.543l.031.15c.778,3.671,1.66,7.831,1.095,11.7-.121.838-.407,2.8-1.917,3.2A2.565,2.565,0,0,1,45.863,84.005Z"/><path d="M26.3,21.135a2.411,2.411,0,0,0-1.841-.267,2.382,2.382,0,0,0-1.493,1.115,2.432,2.432,0,1,0,3.334-.848Zm-.151,2.741A1.274,1.274,0,1,1,24.747,22a1.168,1.168,0,0,1,.314-.041,1.249,1.249,0,0,1,.65.18A1.28,1.28,0,0,1,26.153,23.876Z"/><path d="M34.558,23.354a.58.58,0,0,1-.527-.336c-2.478-5.325-6.017-10.882-7.438-10.55-.2.047-1.212.556-1.129,6.027a.581.581,0,0,1-.571.59h-.009a.581.581,0,0,1-.581-.572c-.07-4.625.556-6.838,2.03-7.176,2.987-.684,7.449,8.394,8.751,11.191a.581.581,0,0,1-.282.772A.588.588,0,0,1,34.558,23.354Z"/><path d="M5.165,52.567a.58.58,0,0,1-.449-.947c8.3-10.186,18.691-3.95,18.795-3.885a.581.581,0,0,1-.61.988c-.389-.238-9.634-5.753-17.285,3.631A.582.582,0,0,1,5.165,52.567Z"/><path d="M108.552,57.411a1.948,1.948,0,0,0-2.724-.372,1.938,1.938,0,0,0-.766,1.551,1.909,1.909,0,0,0,.395,1.172,1.945,1.945,0,0,0,2.723.372,1.947,1.947,0,0,0,.372-2.723Zm-1.075,1.8a.786.786,0,0,1-1.1-.151.772.772,0,0,1-.151-.581.783.783,0,0,1,.3-.517.773.773,0,0,1,.58-.151.784.784,0,0,1,.517.3.758.758,0,0,1,.151.575A.782.782,0,0,1,107.477,59.211Z"/><path d="M104.992,56.366a.58.58,0,0,1-.451-.214C99,49.351,92.294,53.34,92.012,53.513a.581.581,0,0,1-.61-.989,10.791,10.791,0,0,1,14.04,2.895.581.581,0,0,1-.084.817A.574.574,0,0,1,104.992,56.366Z"/><path d="M92.356,31.437a.594.594,0,0,0-.54-.058l-14.79,5.783a.582.582,0,0,0-.366.54V62.416a.581.581,0,1,0,1.162,0V46.291l14.372-5.308a.585.585,0,0,0,.377-.546l.035-8.518A.588.588,0,0,0,92.356,31.437Zm-.946,8.594L77.822,45.054V38.1l13.617-5.336Z"/><path d="M77.6,60.982a5.186,5.186,0,0,0-.941-1.719,6.746,6.746,0,0,0-5.249-2.357c-3.531,0-6.405,2.473-6.405,5.51A5.573,5.573,0,0,0,68.92,67.5a7.279,7.279,0,0,0,2.491.436c3.536,0,6.411-2.474,6.411-5.517A4.754,4.754,0,0,0,77.6,60.982Zm-6.19,5.79a5.657,5.657,0,0,1-4.193-1.743,3.861,3.861,0,0,1-1.051-2.613c0-2.4,2.352-4.349,5.244-4.349a5.773,5.773,0,0,1,3.682,1.26,3.977,3.977,0,0,1,1.567,3.089C76.66,64.815,74.3,66.772,71.411,66.772Z"/></g></svg>