<svg xmlns="http://www.w3.org/2000/svg" viewBox="0 0 88.041 77.507"><defs><style>.cls-1{fill:#0095ff;}</style></defs><g id="레이어_2" data-name="레이어 2"><path class="cls-1" d="M16.073,61.013a5.586,5.586,0,0,1-7.363,5.3,5.052,5.052,0,0,1-1.458-2.283,4.851,4.851,0,0,1-.221-1.463,5.007,5.007,0,0,1,5.006-5.006,4.855,4.855,0,0,1,1.463.221,5.043,5.043,0,0,1,2.282,1.458A5.6,5.6,0,0,1,16.073,61.013Z"/><path class="cls-1" d="M75.523,44.422a5.593,5.593,0,0,1-5.592,5.587,5.492,5.492,0,0,1-1.754-.285l-.005-.006c-.006,0-.006,0-.012-.005A4.971,4.971,0,0,1,66.7,47.436l-.006-.006a5.011,5.011,0,0,1,4.791-6.463,5.086,5.086,0,0,1,1.463.215l.006.006a4.973,4.973,0,0,1,2.276,1.463c.006.006.006.006.006.012l.006.006A5.513,5.513,0,0,1,75.523,44.422Z"/><path class="cls-1" d="M35.891,27.832a5.6,5.6,0,0,1-5.586,5.592,5.537,5.537,0,0,1-1.765-.284,4.971,4.971,0,0,1-1.481-2.3,5.011,5.011,0,0,1,8.548-4.773A5.537,5.537,0,0,1,35.891,27.832Z"/><path d="M35.607,26.067A5.59,5.59,0,1,0,28.54,33.14a5.537,5.537,0,0,0,1.765.284,5.6,5.6,0,0,0,5.586-5.592A5.537,5.537,0,0,0,35.607,26.067Zm-5.3,6.2a4.422,4.422,0,1,1,4.425-4.431A4.4,4.4,0,0,1,30.305,32.263Z"/><path d="M79.843,5.621H.6a.579.579,0,0,0-.58.581v63.1a.578.578,0,0,0,.58.58h79.24a.578.578,0,0,0,.581-.58V6.2A.579.579,0,0,0,79.843,5.621Zm-.58,63.1H1.184V6.782H79.263Z"/><path d="M79.841,20.121H.581a.581.581,0,1,1,0-1.161h79.26a.581.581,0,0,1,0,1.161Z"/><polygon class="cls-1" points="88.041 6.194 88.041 77.507 0.599 77.507 0.599 72.555 83.09 72.556 83.09 6.194 88.041 6.194"/><path d="M20.4,69.887a.58.58,0,0,1-.58-.581V19.54a.581.581,0,0,1,1.161,0V69.306A.581.581,0,0,1,20.4,69.887Z"/><path d="M79.841,36.71H.581a.581.581,0,0,1,0-1.162h79.26a.581.581,0,0,1,0,1.162Z"/><path d="M79.841,53.3H.581a.581.581,0,1,1,0-1.161h79.26a.581.581,0,1,1,0,1.161Z"/><path d="M40.211,69.887a.581.581,0,0,1-.581-.581V19.54a.581.581,0,0,1,1.161,0V69.306A.58.58,0,0,1,40.211,69.887Z"/><path d="M60.026,69.887a.581.581,0,0,1-.581-.581V19.54a.581.581,0,0,1,1.162,0V69.306A.581.581,0,0,1,60.026,69.887Z"/><path d="M75.239,42.669l-.006-.006c0-.006,0-.006-.006-.012a5.584,5.584,0,1,0-7.067,7.062c.006.005.006.005.012.005l.005.006a5.492,5.492,0,0,0,1.754.285,5.593,5.593,0,0,0,5.592-5.587A5.513,5.513,0,0,0,75.239,42.669Zm-5.308,6.178A4.414,4.414,0,0,1,66.7,47.436l-.006-.006a4.423,4.423,0,0,1,6.254-6.248l.006.006a4.421,4.421,0,0,1-3.02,7.659Z"/><path d="M15.782,59.236a5.584,5.584,0,1,0,.291,1.777A5.59,5.59,0,0,0,15.782,59.236Zm-5.3,6.2a4.422,4.422,0,1,1,4.425-4.425A4.415,4.415,0,0,1,10.486,65.438Z"/><path d="M20.4,12.4a.58.58,0,0,1-.58-.581V.581a.581.581,0,1,1,1.161,0V11.818A.581.581,0,0,1,20.4,12.4Z"/><path d="M20.4,12.4a.58.58,0,0,1-.58-.581V.581a.581.581,0,1,1,1.161,0V11.818A.581.581,0,0,1,20.4,12.4Z"/><path d="M60.026,12.4a.581.581,0,0,1-.581-.581V.581a.581.581,0,0,1,1.162,0V11.818A.581.581,0,0,1,60.026,12.4Z"/></g></svg>