<svg id="레이어_1" data-name="레이어 1" xmlns="http://www.w3.org/2000/svg" viewBox="0 0 48 48"><path d="M47.039,4.377H8.731V.989A.96.96,0,0,0,7.77.03,7.773,7.773,0,0,0,0,7.789V44.23a3.8,3.8,0,0,0,3.794,3.8H8.77a.923.923,0,0,0,.14-.011H47.039A.96.96,0,0,0,48,47.06V5.336A.96.96,0,0,0,47.039,4.377ZM1.921,7.789A5.853,5.853,0,0,1,6.809,2.027V5.294c0,.015-.008.027-.008.042V40.448l-3.007-.007a3.753,3.753,0,0,0-1.873.514ZM46.079,46.1H8.77a.923.923,0,0,0-.14.011H3.794a1.876,1.876,0,0,1,0-3.752l3.967.01h0a.959.959,0,0,0,.96-.96V6.3H46.079Z"/><path d="M22.092,24.5a20.286,20.286,0,0,0,2.041,1.652,16.228,16.228,0,0,1,1.972,1.619.963.963,0,0,0,1.376,0,16.224,16.224,0,0,1,1.972-1.618A20.363,20.363,0,0,0,31.5,24.5c2.107-2.031,4.055-4.308,4.023-7.193a4.839,4.839,0,0,0-1.745-3.74A5.056,5.056,0,0,0,29.663,12.5a4.38,4.38,0,0,0-2.865,1.8,4.373,4.373,0,0,0-2.865-1.8,5.059,5.059,0,0,0-4.112,1.065,4.848,4.848,0,0,0-1.746,3.74C18.04,20.192,19.986,22.469,22.092,24.5Zm-1.043-9.455a3.092,3.092,0,0,1,1.982-.7,3.373,3.373,0,0,1,.572.049,2.632,2.632,0,0,1,2.151,2.8.959.959,0,0,0,.96.952h.166a.96.96,0,0,0,.961-.951A2.636,2.636,0,0,1,30,14.392a3.137,3.137,0,0,1,2.553.648A2.957,2.957,0,0,1,33.6,17.325c.023,2.158-1.637,4.059-3.436,5.791a18.406,18.406,0,0,1-1.854,1.494c-.507.377-1.027.761-1.516,1.18-.489-.419-1.008-.8-1.517-1.18a18.44,18.44,0,0,1-1.85-1.491c-1.8-1.732-3.456-3.632-3.43-5.787A2.95,2.95,0,0,1,21.049,15.045Z"/><path d="M15.47,33.74H38.124a.96.96,0,1,0,0-1.919H15.47a.96.96,0,1,0,0,1.919Z"/><path d="M15.47,39.946H38.124a.96.96,0,1,0,0-1.919H15.47a.96.96,0,1,0,0,1.919Z"/></svg>