<svg id="레이어_1" data-name="레이어 1" xmlns="http://www.w3.org/2000/svg" viewBox="0 0 100 13.171"><defs><style>.cls-1{fill:#111;}.cls-2{fill:#0095ff;}.cls-3{fill:#fff;}</style></defs><path id="패스_52141" data-name="패스 52141" class="cls-1" d="M0,0H21.276V13.171H0Z"/><g id="패스_52138" data-name="패스 52138"><rect class="cls-2" x="21.276" width="38.5" height="13.171"/></g><path id="패스_52142" data-name="패스 52142" class="cls-3" d="M9.38,4.174v-2.1H8.274V7.263H9.38V5.073h1.249v-.9Zm-4.369.9a3.51,3.51,0,0,0,2.03,1.843l.592-.861a2.878,2.878,0,0,1-2.11-2.746v-.78h-1.1v.81A3.089,3.089,0,0,1,2.229,6.3l.592.868A3.646,3.646,0,0,0,5.011,5.073ZM9.38,10.9V7.63H3.6V10.9ZM8.292,8.511v1.5h-3.6v-1.5ZM18.373,7.328V2.071h-1.1V3.8H15.492v.9h1.782V7.326ZM13.627,5.139a3.419,3.419,0,0,0,2.04,1.847l.591-.861a2.838,2.838,0,0,1-2.1-2.778V2.553h-1.1V3.4a3.078,3.078,0,0,1-2.229,2.977l.587.885A3.621,3.621,0,0,0,13.627,5.139Zm1.718,2.428c-1.889,0-3.047.634-3.044,1.723S13.456,11,15.345,11,18.4,10.38,18.4,9.289s-1.158-1.722-3.051-1.722Zm0,2.568c-1.246,0-1.956-.3-1.949-.846-.007-.564.7-.865,1.949-.865s1.955.3,1.959.865c0,.545-.71.85-1.959.846Z"/><path id="패스_52139" data-name="패스 52139" class="cls-1" d="M24.625,2.477V5.713h6.087V2.477ZM25.7,4.849V3.338h3.929V4.849Zm-2.11,2.575h3.636V9.058h1.087V7.424h3.453V6.538H23.589Zm.991.822v2.595h6.281V9.946H25.678v-1.7ZM39.232,5.764V2.073H38.126v8.933h1.106V6.675h1.252V5.763ZM35.443,3.1V2.108H34.337V3.1H32.219v.872h5.33V3.1Zm0,4.573a1.73,1.73,0,0,0,1.63-1.621c-.007-1-.906-1.676-2.178-1.676-1.287,0-2.173.672-2.169,1.676a1.693,1.693,0,0,0,1.609,1.616v.842c-.822.02-1.609.024-2.288.024l.157.906a31.819,31.819,0,0,0,5.516-.366l-.073-.811c-.7.1-1.456.161-2.2.2ZM33.771,6.053c0-.518.448-.833,1.127-.833s1.119.315,1.119.833-.451.822-1.119.818-1.131-.3-1.127-.818Zm13.645-.484H46.5V2.226H45.466v8.353H46.5v-4.1h.912v4.53h1.059V2.071H47.416ZM43.49,3.929h1.469V3.044H40.834v.885h1.592v.427c0,1.742-.532,3.306-1.865,4.052l.682.842a4.024,4.024,0,0,0,1.739-2.533,3.7,3.7,0,0,0,1.735,2.218l.637-.839a3.954,3.954,0,0,1-1.861-3.74ZM56.332,2.071H55.224V8.536h1.108V5.493h1.256V4.581H56.332Zm-1.92,3.775a16.725,16.725,0,0,1-3.67.28V3.694h2.915V2.809H49.645V7.021h.727a19.87,19.87,0,0,0,4.162-.283ZM50.6,7.858v2.983h6.079V9.946H51.694V7.858Z"/><path id="패스_52140" data-name="패스 52140" class="cls-1" d="M64.633,10.209a2.234,2.234,0,0,1-2.144-1.352,3.284,3.284,0,0,1,0-2.58,2.236,2.236,0,0,1,2.153-1.353,2.159,2.159,0,0,1,1.678.684,2.841,2.841,0,0,1,.621,1.976V7.9H63.362v.077a1.337,1.337,0,0,0,.159.634,1.244,1.244,0,0,0,.442.477,1.219,1.219,0,0,0,1.786-.555H66.9a2.313,2.313,0,0,1-.78,1.2A2.27,2.27,0,0,1,64.633,10.209Zm1.184-3.08a1.453,1.453,0,0,0-.342-1.014,1.141,1.141,0,0,0-.842-.322,1.153,1.153,0,0,0-.89.361,1.457,1.457,0,0,0-.351.977Zm3.9,3.08a2.354,2.354,0,0,1-1.1-.241,1.747,1.747,0,0,1-.7-.631,1.545,1.545,0,0,1-.24-.822V8.457h1.145v.058a.747.747,0,0,0,.241.539.926.926,0,0,0,.683.24.963.963,0,0,0,.6-.173.568.568,0,0,0,.231-.481.508.508,0,0,0-.2-.424.975.975,0,0,0-.486-.192l-.607-.116a2.273,2.273,0,0,1-1.035-.438A1.209,1.209,0,0,1,67.8,6.445a1.333,1.333,0,0,1,.52-1.114,2.115,2.115,0,0,1,1.337-.406,2.269,2.269,0,0,1,1.035.222,1.634,1.634,0,0,1,.664.577,1.4,1.4,0,0,1,.226.77v.039H70.437V6.5a.747.747,0,0,0-.2-.491.772.772,0,0,0-.621-.231.852.852,0,0,0-.567.178.579.579,0,0,0-.212.467.486.486,0,0,0,.2.406,1.156,1.156,0,0,0,.5.212l.664.115a2.349,2.349,0,0,1,1.049.472,1.207,1.207,0,0,1,.424.991,1.4,1.4,0,0,1-.254.832,1.655,1.655,0,0,1-.7.558,2.465,2.465,0,0,1-1,.2Zm4.548-4.245V8.457a2.713,2.713,0,0,0,.036.509.389.389,0,0,0,.188.26.957.957,0,0,0,.491.1,2.746,2.746,0,0,0,.442-.051v.821a2.247,2.247,0,0,1-.327.051,5.193,5.193,0,0,1-.529.029,1.958,1.958,0,0,1-.982-.193.83.83,0,0,1-.4-.491,3.012,3.012,0,0,1-.082-.78V5.964h-.886V5.052H73.1V3.394h1.165V5.05h1.155v.911Zm3,4.245a.655.655,0,0,1-.486-.2.71.71,0,0,1,0-.982.65.65,0,0,1,.486-.2.663.663,0,0,1,.5.2.7.7,0,0,1-.5,1.185Zm5.987-1.1v1.021H79.436V9.111H80.85V4.78h-.038L79.417,6.07v-1.4l1.405-1.28h1.145V9.111Zm4.179-2-.04-.017-.145.152a1.742,1.742,0,0,1-.519.355,1.811,1.811,0,0,1-.741.134,2.028,2.028,0,0,1-1.069-.279,1.928,1.928,0,0,1-.722-.779,2.442,2.442,0,0,1-.26-1.135A2.286,2.286,0,0,1,84.263,4.3a2.085,2.085,0,0,1,.861-.78,2.8,2.8,0,0,1,2.368,0,2.109,2.109,0,0,1,.89.8,2.431,2.431,0,0,1,.342,1.328,3.57,3.57,0,0,1-.294,1.463,9.5,9.5,0,0,1-.842,1.473l-1.02,1.55H85.317Zm-1.08-.219a1.128,1.128,0,0,0,.924-.4,1.447,1.447,0,0,0,.328-.947,1.424,1.424,0,0,0-.332-.939,1.14,1.14,0,0,0-.929-.4,1.24,1.24,0,0,0-.7.192,1.215,1.215,0,0,0-.433.5,1.464,1.464,0,0,0-.144.64,1.526,1.526,0,0,0,.144.655,1.226,1.226,0,0,0,.438.506A1.244,1.244,0,0,0,86.356,6.89Zm5.612,3.328a2.773,2.773,0,0,1-1.2-.26,2.1,2.1,0,0,1-.9-.8,2.444,2.444,0,0,1-.341-1.337,3.5,3.5,0,0,1,.3-1.454,9.581,9.581,0,0,1,.837-1.454l1-1.52h1.155l-2,2.984.039.019.144-.152a1.709,1.709,0,0,1,1.261-.491,2.059,2.059,0,0,1,1.073.279,1.9,1.9,0,0,1,.722.775,2.442,2.442,0,0,1,.253,1.132A2.338,2.338,0,0,1,94,9.186a2.031,2.031,0,0,1-.852.775A2.648,2.648,0,0,1,91.968,10.218Zm-.058-.943a1.162,1.162,0,0,0,.946-.4,1.406,1.406,0,0,0,.332-.928,1.511,1.511,0,0,0-.144-.645,1.259,1.259,0,0,0-.433-.507,1.217,1.217,0,0,0-.7-.2,1.148,1.148,0,0,0-.929.4,1.493,1.493,0,0,0,0,1.881A1.144,1.144,0,0,0,91.91,9.275Zm5.717.914a2.527,2.527,0,0,1-1.207-.274,2.191,2.191,0,0,1-.811-.712,2.31,2.31,0,0,1-.37-.958h1.174a1.127,1.127,0,0,0,.443.679,1.294,1.294,0,0,0,.751.226,1.116,1.116,0,0,0,.9-.38,1.461,1.461,0,0,0,.322-.977,1.356,1.356,0,0,0-.342-.982,1.193,1.193,0,0,0-.9-.355,1.1,1.1,0,0,0-1.1.722L95.325,7.14,95.508,3.4H99.57V4.464H96.463l-.1,1.818h.051a1.629,1.629,0,0,1,1.463-.665,2.063,2.063,0,0,1,1.545.588A2.181,2.181,0,0,1,100,7.793a2.621,2.621,0,0,1-.274,1.2,2.134,2.134,0,0,1-.811.871A2.411,2.411,0,0,1,97.627,10.189Z"/></svg>