<svg xmlns="http://www.w3.org/2000/svg" width="258.908" height="69.896" viewBox="0 0 258.908 69.896">
  <g id="그룹_15377" data-name="그룹 15377" transform="translate(-54.57 -5106.565)">
    <path id="패스_52138" data-name="패스 52138" d="M15.839-12.755v-4.672H13.8V-6.2h2.044v-4.877h2.788v-1.679ZM6.465-11.235a7.776,7.776,0,0,0,4.5,4.178l1.109-1.6A6.445,6.445,0,0,1,7.4-14.654v-1.785H5.378v1.831A6.9,6.9,0,0,1,.57-8.113l1.1,1.61A8.043,8.043,0,0,0,6.465-11.235ZM15.839,1.58V-5.356H3.532V1.58Zm-2.021-5.3V-.076H5.538V-3.722ZM35.78-6.062V-17.427H33.744v3.92H29.688v1.679h4.057v5.766ZM25.6-11.076A7.629,7.629,0,0,0,30.113-6.9l1.109-1.6a6.355,6.355,0,0,1-4.649-6.039v-1.823H24.537v1.907a6.851,6.851,0,0,1-4.877,6.5l1.094,1.641A8,8,0,0,0,25.6-11.076Zm3.73,5.546c-4.041,0-6.518,1.352-6.5,3.684-.015,2.325,2.461,3.639,6.5,3.639s6.5-1.314,6.51-3.639C35.834-4.178,33.365-5.53,29.331-5.53Zm0,5.713c-2.818,0-4.5-.744-4.482-2.028-.015-1.329,1.664-2.081,4.482-2.081s4.482.752,4.49,2.081C33.813-.562,32.142.182,29.331.182ZM40.992-16.523v6.837H54.066v-6.837Zm2,5.227v-3.616h9.063V-11.3ZM38.728-6.032h7.961V-2.3H48.71v-3.73h7.635V-7.7H38.728Zm2.2,1.907V1.428H54.392V-.243H42.959V-4.125ZM72.867-9.359v-8.068H70.816V1.823h2.051V-7.65h2.887V-9.359ZM64.7-15.14v-2.233H62.657v2.233H57.894v1.626H69.441V-15.14Zm0,9.716c2.165-.311,3.608-1.626,3.624-3.494-.015-2.173-1.914-3.6-4.634-3.6-2.75,0-4.626,1.428-4.611,3.6-.015,1.861,1.405,3.175,3.578,3.494v1.952c-1.838.053-3.6.061-5.12.061l.311,1.7a70.852,70.852,0,0,0,12.01-.775L69.715-4c-1.6.228-3.312.365-5.014.448ZM61-8.919c0-1.231,1.071-2.021,2.689-2.021,1.6,0,2.674.79,2.674,2.021s-1.071,1.983-2.674,1.975C62.073-6.936,61-7.7,61-8.919Zm30.47-.851h-2.3v-7.285H87.24V.874h1.93V-8.06h2.3V1.823h1.952v-19.25H91.472Zm-8.827-3.8H86v-1.664H77.061v1.664h3.608v1.231c0,3.829-1.314,7.148-4.133,8.721l1.269,1.557a8.977,8.977,0,0,0,3.9-5.713,8.226,8.226,0,0,0,3.844,5.044l1.2-1.565c-2.8-1.443-4.1-4.581-4.1-8.045Zm28.305-3.867h-2.044v13.94h2.044v-6.67h2.8v-1.694h-2.8Zm-3.973,8.3a37.958,37.958,0,0,1-8.273.615v-5.622h6.579V-15.8h-8.6v8.964H98.21a43.225,43.225,0,0,0,9-.631Zm-8.227,4.2V1.428H111.77V-.243H100.778V-4.93Z" transform="translate(54 5124)" fill="#fff"/>
    <path id="패스_52139" data-name="패스 52139" d="M3.072-5.092a4.313,4.313,0,0,0,.634,2.181Q4.77-1.343,7.455-1.343a6.636,6.636,0,0,0,2.191-.344,2.435,2.435,0,0,0,1.912-2.385,2.059,2.059,0,0,0-.806-1.837A8.135,8.135,0,0,0,8.2-6.843L6.059-7.326A9.68,9.68,0,0,1,3.094-8.368a3.3,3.3,0,0,1-1.5-2.954,4.549,4.549,0,0,1,1.472-3.491,5.9,5.9,0,0,1,4.168-1.364,7.239,7.239,0,0,1,4.216,1.2,4.323,4.323,0,0,1,1.735,3.83H11.172a3.954,3.954,0,0,0-.687-1.944A3.994,3.994,0,0,0,7.165-14.33a3.84,3.84,0,0,0-2.718.795,2.488,2.488,0,0,0-.827,1.848,1.8,1.8,0,0,0,.967,1.7,14.188,14.188,0,0,0,2.868.859l2.213.5a6.78,6.78,0,0,1,2.471,1,3.741,3.741,0,0,1,1.5,3.212A4.009,4.009,0,0,1,11.736-.666,8.539,8.539,0,0,1,7.3.462,6.626,6.626,0,0,1,2.7-1.042a5.074,5.074,0,0,1-1.633-4.05ZM24.449-6.467l-2.4-6.972L19.508-6.467ZM20.937-15.78h2.417L29.079,0H26.737l-1.6-4.727H18.9L17.188,0H15Zm10.033,0h3.062L38.564-2.438l4.5-13.342h3.029V0h-2.03V-9.313q0-.483.021-1.6t.021-2.4L39.606,0H37.49L32.957-13.31v.483q0,.58.027,1.767t.027,1.746V0H30.97ZM50.746-5.092a4.313,4.313,0,0,0,.634,2.181q1.063,1.568,3.749,1.568a6.636,6.636,0,0,0,2.191-.344,2.435,2.435,0,0,0,1.912-2.385,2.059,2.059,0,0,0-.806-1.837,8.135,8.135,0,0,0-2.557-.935l-2.138-.483a9.68,9.68,0,0,1-2.965-1.042,3.3,3.3,0,0,1-1.5-2.954,4.549,4.549,0,0,1,1.472-3.491A5.9,5.9,0,0,1,54.9-16.178a7.239,7.239,0,0,1,4.216,1.2,4.323,4.323,0,0,1,1.735,3.83H58.846a3.954,3.954,0,0,0-.687-1.944,3.994,3.994,0,0,0-3.319-1.235,3.84,3.84,0,0,0-2.718.795,2.488,2.488,0,0,0-.827,1.848,1.8,1.8,0,0,0,.967,1.7,14.188,14.188,0,0,0,2.868.859l2.213.5a6.78,6.78,0,0,1,2.471,1,3.741,3.741,0,0,1,1.5,3.212A4.009,4.009,0,0,1,59.41-.666,8.539,8.539,0,0,1,54.979.462a6.626,6.626,0,0,1-4.608-1.5,5.074,5.074,0,0,1-1.633-4.05Zm15.6-10.688v9.754a5.738,5.738,0,0,0,.645,2.857A3.387,3.387,0,0,0,70.211-1.45q2.718,0,3.7-1.858a5.916,5.916,0,0,0,.526-2.718V-15.78H76.6v8.862a10.254,10.254,0,0,1-.784,4.479Q74.379.419,70.383.419T64.958-2.438a10.254,10.254,0,0,1-.784-4.479V-15.78Zm13.567,0h2.524L90.406-3V-15.78h2.03V0h-2.4L81.952-12.772V0H79.911Zm22.709-.408a8.106,8.106,0,0,1,3.846.859A5.607,5.607,0,0,1,109.345-11h-2.116a3.843,3.843,0,0,0-1.6-2.519,5.509,5.509,0,0,0-3.062-.79,4.8,4.8,0,0,0-3.69,1.644,7.053,7.053,0,0,0-1.5,4.9,7.827,7.827,0,0,0,1.235,4.582,4.567,4.567,0,0,0,4.028,1.767,5.144,5.144,0,0,0,3.54-1.241,5.194,5.194,0,0,0,1.434-4.012h-4.941V-8.443H109.6V0h-1.375l-.516-2.03a8.1,8.1,0,0,1-1.923,1.654,7.207,7.207,0,0,1-3.577.795A6.969,6.969,0,0,1,97.389-1.4a8.615,8.615,0,0,1-2.2-6.252,8.966,8.966,0,0,1,2.148-6.306A6.829,6.829,0,0,1,102.62-16.188Zm16.607.408h10.946v1.934h-8.809v4.791h7.745v1.88h-7.745V0h-2.138Zm20.045-.43q4.179,0,6.188,2.686a8.7,8.7,0,0,1,1.568,5.36,9.38,9.38,0,0,1-1.794,5.876,7.114,7.114,0,0,1-6,2.75A7.177,7.177,0,0,1,133.5-1.944a9.086,9.086,0,0,1-1.858-5.865,9.329,9.329,0,0,1,1.59-5.479A6.888,6.888,0,0,1,139.272-16.21Zm.215,14.76a4.45,4.45,0,0,0,4.087-2.025,8.619,8.619,0,0,0,1.262-4.657,6.642,6.642,0,0,0-1.456-4.479,4.968,4.968,0,0,0-3.98-1.7,5.183,5.183,0,0,0-4,1.681,7.086,7.086,0,0,0-1.547,4.958,7.243,7.243,0,0,0,1.327,4.42A4.989,4.989,0,0,0,139.487-1.45Zm12.407-14.33v9.754a5.738,5.738,0,0,0,.645,2.857,3.387,3.387,0,0,0,3.223,1.719q2.718,0,3.7-1.858a5.916,5.916,0,0,0,.526-2.718V-15.78h2.17v8.862a10.254,10.254,0,0,1-.784,4.479Q159.93.419,155.934.419t-5.425-2.857a10.254,10.254,0,0,1-.784-4.479V-15.78Zm13.567,0h2.524L175.957-3V-15.78h2.03V0h-2.4L167.5-12.772V0h-2.041ZM187.408-1.826a5.908,5.908,0,0,0,1.783-.226,3.922,3.922,0,0,0,2.041-1.611,6.6,6.6,0,0,0,.913-2.449,9.342,9.342,0,0,0,.161-1.654,7.7,7.7,0,0,0-1.166-4.555,4.306,4.306,0,0,0-3.754-1.622h-3.792V-1.826ZM181.446-15.78h6.392a6.024,6.024,0,0,1,5.049,2.31,8.515,8.515,0,0,1,1.6,5.339,10.637,10.637,0,0,1-.945,4.544A5.832,5.832,0,0,1,187.816,0h-6.37Zm23.891,9.313-2.4-6.972L200.4-6.467Zm-3.513-9.313h2.417L209.967,0h-2.342l-1.6-4.727h-6.241L198.075,0h-2.191Zm19.948,0v1.88h-5.317V0h-2.17V-13.9h-5.317v-1.88Zm2.438,0h2.159V0h-2.159Zm12.439-.43q4.179,0,6.188,2.686a8.7,8.7,0,0,1,1.568,5.36,9.38,9.38,0,0,1-1.794,5.876,7.114,7.114,0,0,1-6,2.75,7.177,7.177,0,0,1-5.726-2.406,9.086,9.086,0,0,1-1.858-5.865,9.329,9.329,0,0,1,1.59-5.479A6.888,6.888,0,0,1,236.65-16.21Zm.215,14.76a4.45,4.45,0,0,0,4.087-2.025,8.619,8.619,0,0,0,1.262-4.657,6.642,6.642,0,0,0-1.456-4.479,4.968,4.968,0,0,0-3.98-1.7,5.183,5.183,0,0,0-4,1.681,7.086,7.086,0,0,0-1.547,4.958,7.243,7.243,0,0,0,1.327,4.42A4.989,4.989,0,0,0,236.865-1.45Zm10.087-14.33h2.524L257.447-3V-15.78h2.03V0h-2.4l-8.089-12.772V0h-2.041ZM8.486,9.79q4.179,0,6.188,2.686a8.7,8.7,0,0,1,1.568,5.36,9.38,9.38,0,0,1-1.794,5.876,7.115,7.115,0,0,1-6,2.75,7.177,7.177,0,0,1-5.726-2.406A9.086,9.086,0,0,1,.859,18.19a9.329,9.329,0,0,1,1.59-5.479A6.888,6.888,0,0,1,8.486,9.79ZM8.7,24.55a4.45,4.45,0,0,0,4.087-2.025,8.619,8.619,0,0,0,1.262-4.657A6.642,6.642,0,0,0,12.6,13.389a4.968,4.968,0,0,0-3.98-1.7,5.183,5.183,0,0,0-4,1.681A7.086,7.086,0,0,0,3.072,18.33,7.243,7.243,0,0,0,4.4,22.75,4.989,4.989,0,0,0,8.7,24.55ZM18.992,10.22H29.938v1.934H21.13v4.791h7.745v1.88H21.13V26H18.992Zm26-.43a6.467,6.467,0,0,1,4.651,1.579,5.577,5.577,0,0,1,1.837,3.588H49.393A4.337,4.337,0,0,0,47.98,12.54a4.477,4.477,0,0,0-2.97-.892,4.763,4.763,0,0,0-3.765,1.638,7.467,7.467,0,0,0-1.434,5.022A7.294,7.294,0,0,0,41.1,22.8a4.523,4.523,0,0,0,3.862,1.724,4.08,4.08,0,0,0,3.6-1.815,6.9,6.9,0,0,0,.978-2.514h2.084a7.121,7.121,0,0,1-1.848,4.179,6.574,6.574,0,0,1-5.07,2.03,6.692,6.692,0,0,1-4.619-1.665q-2.46-2.2-2.46-6.8a8.686,8.686,0,0,1,1.848-5.726A6.749,6.749,0,0,1,44.988,9.79Zm11.559.43v9.754a5.738,5.738,0,0,0,.645,2.857,3.387,3.387,0,0,0,3.223,1.719q2.718,0,3.7-1.858a5.916,5.916,0,0,0,.526-2.718V10.22h2.17v8.862a10.254,10.254,0,0,1-.784,4.479q-1.439,2.857-5.436,2.857t-5.425-2.857a10.254,10.254,0,0,1-.784-4.479V10.22Zm13.567,0h2.138v13.9h7.992V26H70.114Zm22.1,0V12.1H86.894V26h-2.17V12.1H79.406V10.22Zm4.275,0v9.754a5.738,5.738,0,0,0,.645,2.857,3.387,3.387,0,0,0,3.223,1.719q2.718,0,3.7-1.858a5.916,5.916,0,0,0,.526-2.718V10.22h2.17v8.862a10.254,10.254,0,0,1-.784,4.479q-1.439,2.857-5.436,2.857T95.1,23.562a10.254,10.254,0,0,1-.784-4.479V10.22Zm20.9,7.229a4.143,4.143,0,0,0,2.379-.6,2.449,2.449,0,0,0,.875-2.17,2.328,2.328,0,0,0-1.225-2.3,4,4,0,0,0-1.751-.322h-5.221v5.393Zm-7.079-7.229h7.3a7.285,7.285,0,0,1,2.976.526,3.727,3.727,0,0,1,2.224,3.728,4.192,4.192,0,0,1-.585,2.32,4.23,4.23,0,0,1-1.638,1.45,3.228,3.228,0,0,1,1.391.988,3.549,3.549,0,0,1,.521,1.987l.075,2.116a6.506,6.506,0,0,0,.15,1.343,1.32,1.32,0,0,0,.688.967V26H120.8a1.971,1.971,0,0,1-.172-.526,10.1,10.1,0,0,1-.107-1.246l-.129-2.632a2.211,2.211,0,0,0-1.149-2.073,4.754,4.754,0,0,0-1.923-.29h-4.866V26h-2.138Zm15.834,0h11.5v1.934h-9.421v4.791h8.712v1.826h-8.712v5.35h9.582V26H126.146Z" transform="translate(54 5150)" fill="#fff"/>
  </g>
</svg>
